<?xml version="1.0" encoding="UTF-8" standalone="no"?>
<!-- Created with Inkscape (http://www.inkscape.org/) -->

<svg
   xmlns:dc="http://purl.org/dc/elements/1.1/"
   xmlns:cc="http://creativecommons.org/ns#"
   xmlns:rdf="http://www.w3.org/1999/02/22-rdf-syntax-ns#"
   xmlns:svg="http://www.w3.org/2000/svg"
   xmlns="http://www.w3.org/2000/svg"
   xmlns:sodipodi="http://sodipodi.sourceforge.net/DTD/sodipodi-0.dtd"
   xmlns:inkscape="http://www.inkscape.org/namespaces/inkscape"
   width="454.4375"
   height="454.4375"
   id="svg2"
   version="1.1"
   inkscape:version="0.48.4 r9939"
   sodipodi:docname="drawing2.svg">
  <defs
     id="defs4">
    <inkscape:path-effect
       effect="construct_grid"
       id="path-effect3774"
       is_visible="true"
       nr_x="3"
       nr_y="3" />
  </defs>
  <sodipodi:namedview
     id="base"
     pagecolor="#ffffff"
     bordercolor="#666666"
     borderopacity="1.0"
     inkscape:pageopacity="0.0"
     inkscape:pageshadow="2"
     inkscape:zoom="1.4"
     inkscape:cx="69.745856"
     inkscape:cy="208.63869"
     inkscape:document-units="px"
     inkscape:current-layer="layer1"
     showgrid="false"
     inkscape:window-width="1680"
     inkscape:window-height="1026"
     inkscape:window-x="0"
     inkscape:window-y="24"
     inkscape:window-maximized="1"
     fit-margin-top="0"
     fit-margin-left="0"
     fit-margin-right="0"
     fit-margin-bottom="0" />
  <metadata
     id="metadata7">
    <rdf:RDF>
      <cc:Work
         rdf:about="">
        <dc:format>image/svg+xml</dc:format>
        <dc:type
           rdf:resource="http://purl.org/dc/dcmitype/StillImage" />
        <dc:title></dc:title>
      </cc:Work>
    </rdf:RDF>
  </metadata>
  <g
     inkscape:label="Layer 1"
     inkscape:groupmode="layer"
     id="layer1"
     transform="translate(-107.625,-286.71875)">
    <path
       style="color:#000000;fill:#666666;fill-opacity:1;fill-rule:nonzero;stroke:#000000;stroke-width:3.0229423;stroke-linecap:butt;stroke-linejoin:miter;stroke-miterlimit:4;stroke-opacity:1;stroke-dashoffset:0;marker:none;visibility:visible;display:inline;overflow:visible;enable-background:accumulate"
       d="m 561.97595,288.95767 -452.51226,0 m 452.51226,150.59932 -452.51226,0 m 452.51226,150.59932 -452.51226,0 m 452.51226,150.59932 -452.51226,0 m 452.51226,-451.79796 0,451.79796 m -150.83742,-451.79796 0,451.79796 m -150.83742,-451.79796 0,451.79796 m -150.83742,-451.79796 0,451.79796"
       id="rect3769"
       inkscape:path-effect="#path-effect3774"
       inkscape:original-d="m 411.13853,288.95767 150.83742,0 0,150.59932 -150.83742,0 z"
       inkscape:connector-curvature="0" />
    <path
       style="color:#000000;fill:none;stroke:none;stroke-width:2.69000006;marker:none;visibility:visible;display:inline;overflow:visible;enable-background:accumulate"
       d="m 109.13889,445.91542 0,-21.78571 21.78571,0 21.78572,0 0,21.78571 0,21.78572 -21.78572,0 -21.78571,0 0,-21.78572 z"
       id="path3786"
       inkscape:connector-curvature="0" />
    <path
       style="color:#000000;fill:none;stroke:none;stroke-width:2.69000006;marker:none;visibility:visible;display:inline;overflow:visible;enable-background:accumulate"
       d="m 154.13889,445.91542 0,-21.78571 21.78571,0 21.78572,0 0,21.78571 0,21.78572 -21.78572,0 -21.78571,0 0,-21.78572 z"
       id="path3788"
       inkscape:connector-curvature="0" />
    <path
       style="color:#000000;fill:none;stroke:none;stroke-width:2.69000006;marker:none;visibility:visible;display:inline;overflow:visible;enable-background:accumulate"
       d="m 199.85317,445.91542 0,-21.78571 21.78572,0 21.78571,0 0,21.78571 0,21.78572 -21.78571,0 -21.78572,0 0,-21.78572 z"
       id="path3792"
       inkscape:connector-curvature="0" />
    <path
       style="color:#000000;fill:none;stroke:none;stroke-width:2.69000006;marker:none;visibility:visible;display:inline;overflow:visible;enable-background:accumulate"
       d="m 244.85317,445.91542 0,-21.78571 21.78572,0 21.78571,0 0,21.78571 0,21.78572 -21.78571,0 -21.78572,0 0,-21.78572 z"
       id="path3794"
       inkscape:connector-curvature="0" />
    <path
       style="color:#000000;fill:none;stroke:none;stroke-width:2.69000006;marker:none;visibility:visible;display:inline;overflow:visible;enable-background:accumulate"
       d="m 290.56746,445.91542 0,-21.78571 21.78571,0 21.78572,0 0,21.78571 0,21.78572 -21.78572,0 -21.78571,0 0,-21.78572 z"
       id="path3796"
       inkscape:connector-curvature="0" />
    <path
       style="color:#000000;fill:none;stroke:none;stroke-width:2.69000006;marker:none;visibility:visible;display:inline;overflow:visible;enable-background:accumulate"
       d="m 335.56746,445.91542 0,-21.78571 21.78571,0 21.78572,0 0,21.78571 0,21.78572 -21.78572,0 -21.78571,0 0,-21.78572 z"
       id="path3798"
       inkscape:connector-curvature="0" />
    <path
       style="color:#000000;fill:none;stroke:none;stroke-width:2.69000006;marker:none;visibility:visible;display:inline;overflow:visible;enable-background:accumulate"
       d="m 381.28175,445.91542 0,-21.78571 21.78571,0 21.78571,0 0,21.78571 0,21.78572 -21.78571,0 -21.78571,0 0,-21.78572 z"
       id="path3800"
       inkscape:connector-curvature="0" />
    <path
       style="color:#000000;fill:none;stroke:none;stroke-width:2.69000006;marker:none;visibility:visible;display:inline;overflow:visible;enable-background:accumulate"
       d="m 426.28175,445.91542 0,-21.78571 21.78571,0 21.78571,0 0,21.78571 0,21.78572 -21.78571,0 -21.78571,0 0,-21.78572 z"
       id="path3802"
       inkscape:connector-curvature="0" />
    <path
       style="color:#000000;fill:none;stroke:none;stroke-width:2.69000006;marker:none;visibility:visible;display:inline;overflow:visible;enable-background:accumulate"
       d="m 471.99603,445.91542 0,-21.78571 21.78572,0 21.78571,0 0,21.78571 0,21.78572 -21.78571,0 -21.78572,0 0,-21.78572 z"
       id="path3804"
       inkscape:connector-curvature="0" />
    <path
       style="color:#000000;fill:none;stroke:none;stroke-width:2.69000006;marker:none;visibility:visible;display:inline;overflow:visible;enable-background:accumulate"
       d="m 471.99603,400.55828 0,-22.14286 21.78572,0 21.78571,0 0,22.14286 0,22.14286 -21.78571,0 -21.78572,0 0,-22.14286 z"
       id="path3806"
       inkscape:connector-curvature="0" />
    <path
       style="color:#000000;fill:none;stroke:none;stroke-width:2.69000006;marker:none;visibility:visible;display:inline;overflow:visible;enable-background:accumulate"
       d="m 471.99603,355.20114 0,-21.78572 21.78572,0 21.78571,0 0,21.78572 0,21.78571 -21.78571,0 -21.78572,0 0,-21.78571 z"
       id="path3808"
       inkscape:connector-curvature="0" />
    <path
       style="color:#000000;fill:none;stroke:none;stroke-width:2.69000006;marker:none;visibility:visible;display:inline;overflow:visible;enable-background:accumulate"
       d="m 109.13889,491.27256 0,-22.14285 21.78571,0 21.78572,0 0,22.14285 0,22.14286 -21.78572,0 -21.78571,0 0,-22.14286 z"
       id="path3810"
       inkscape:connector-curvature="0" />
    <text
       xml:space="preserve"
       style="font-size:110.97540283px;font-style:normal;font-weight:normal;line-height:125%;letter-spacing:0px;word-spacing:0px;fill:#000000;fill-opacity:1;stroke:none;font-family:Sans"
       x="294.45581"
       y="409.20837"
       id="text5748"
       sodipodi:linespacing="125%"
       transform="scale(1.0128585,0.98730475)"><tspan
         sodipodi:role="line"
         id="tspan5750"
         x="294.45581"
         y="409.20837">1</tspan></text>
    <text
       xml:space="preserve"
       style="font-size:110.97540283px;font-style:normal;font-weight:normal;line-height:125%;letter-spacing:0px;word-spacing:0px;fill:#000000;fill-opacity:1;stroke:none;font-family:Sans"
       x="145.43863"
       y="557.45624"
       id="text5748-5"
       sodipodi:linespacing="125%"
       transform="scale(1.0128585,0.98730475)"><tspan
         sodipodi:role="line"
         id="tspan5750-7"
         x="145.43863"
         y="557.45624">2</tspan></text>
    <text
       xml:space="preserve"
       style="font-size:110.97540283px;font-style:normal;font-weight:normal;line-height:125%;letter-spacing:0px;word-spacing:0px;fill:#000000;fill-opacity:1;stroke:none;font-family:Sans"
       x="444.80078"
       y="556.74084"
       id="text5748-5-7"
       sodipodi:linespacing="125%"
       transform="scale(1.0128585,0.98730475)"><tspan
         sodipodi:role="line"
         id="tspan5750-7-0"
         x="444.80078"
         y="556.74084">3</tspan></text>
    <text
       xml:space="preserve"
       style="font-size:110.97540283px;font-style:normal;font-weight:normal;line-height:125%;letter-spacing:0px;word-spacing:0px;fill:#000000;fill-opacity:1;stroke:none;font-family:Sans"
       x="290.49515"
       y="712.22467"
       id="text5748-5-7-1"
       sodipodi:linespacing="125%"
       transform="scale(1.0128585,0.98730475)"><tspan
         sodipodi:role="line"
         id="tspan5750-7-0-9"
         x="290.49515"
         y="712.22467">4</tspan></text>
  </g>
</svg>
