<?xml version="1.0" encoding="UTF-8" standalone="no"?>
<!-- Created with Inkscape (http://www.inkscape.org/) -->

<svg
   xmlns:dc="http://purl.org/dc/elements/1.1/"
   xmlns:cc="http://creativecommons.org/ns#"
   xmlns:rdf="http://www.w3.org/1999/02/22-rdf-syntax-ns#"
   xmlns:svg="http://www.w3.org/2000/svg"
   xmlns="http://www.w3.org/2000/svg"
   xmlns:sodipodi="http://sodipodi.sourceforge.net/DTD/sodipodi-0.dtd"
   xmlns:inkscape="http://www.inkscape.org/namespaces/inkscape"
   width="454.4375"
   height="454.4375"
   id="svg2"
   version="1.1"
   inkscape:version="0.48.4 r9939"
   sodipodi:docname="drawing1.pdf">
  <defs
     id="defs4">
    <inkscape:path-effect
       effect="construct_grid"
       id="path-effect3774"
       is_visible="true"
       nr_x="10"
       nr_y="10" />
  </defs>
  <sodipodi:namedview
     id="base"
     pagecolor="#ffffff"
     bordercolor="#666666"
     borderopacity="1.0"
     inkscape:pageopacity="0.0"
     inkscape:pageshadow="2"
     inkscape:zoom="1.4"
     inkscape:cx="160.95352"
     inkscape:cy="206.14621"
     inkscape:document-units="px"
     inkscape:current-layer="layer1"
     showgrid="false"
     inkscape:window-width="1680"
     inkscape:window-height="1026"
     inkscape:window-x="0"
     inkscape:window-y="24"
     inkscape:window-maximized="1"
     fit-margin-top="0"
     fit-margin-left="0"
     fit-margin-right="0"
     fit-margin-bottom="0" />
  <metadata
     id="metadata7">
    <rdf:RDF>
      <cc:Work
         rdf:about="">
        <dc:format>image/svg+xml</dc:format>
        <dc:type
           rdf:resource="http://purl.org/dc/dcmitype/StillImage" />
        <dc:title></dc:title>
      </cc:Work>
    </rdf:RDF>
  </metadata>
  <g
     inkscape:label="Layer 1"
     inkscape:groupmode="layer"
     id="layer1"
     transform="translate(-107.625,-286.71875)">
    <path
       style="color:#000000;fill:#666666;fill-opacity:1;fill-rule:nonzero;stroke:#000000;stroke-width:0.90960823999999996;stroke-linecap:butt;stroke-linejoin:miter;stroke-miterlimit:4;stroke-opacity:1;stroke-dashoffset:0;marker:none;visibility:visible;display:inline;overflow:visible;enable-background:accumulate"
       d="m 561.60405,287.18671 -453.5139,0 m 453.5139,45.35139 -453.5139,0 m 453.5139,45.35139 -453.5139,0 m 453.5139,45.35139 -453.5139,0 m 453.5139,45.35139 -453.5139,0 m 453.5139,45.35139 -453.5139,0 m 453.5139,45.35139 -453.5139,0 m 453.5139,45.35139 -453.5139,0 m 453.5139,45.35139 -453.5139,0 m 453.5139,45.35139 -453.5139,0 m 453.5139,45.35139 -453.5139,0 m 453.5139,-453.5139 0,453.5139 m -45.35139,-453.5139 0,453.5139 m -45.35139,-453.5139 0,453.5139 m -45.35139,-453.5139 0,453.5139 m -45.35139,-453.5139 0,453.5139 m -45.35139,-453.5139 0,453.5139 m -45.35139,-453.5139 0,453.5139 m -45.35139,-453.5139 0,453.5139 m -45.35139,-453.5139 0,453.5139 m -45.35139,-453.5139 0,453.5139 m -45.35139,-453.5139 0,453.5139"
       id="rect3769"
       inkscape:path-effect="#path-effect3774"
       inkscape:original-d="m 516.25266,287.18671 45.35139,0 0,45.35139 -45.35139,0 z"
       inkscape:connector-curvature="0" />
    <path
       style="color:#000000;fill:#ffffff;fill-opacity:1;fill-rule:nonzero;stroke:none;stroke-width:1.92142856;marker:none;visibility:visible;display:inline;overflow:visible;enable-background:accumulate"
       d="m 109.13889,445.91542 0,-21.78571 21.78571,0 21.78572,0 0,21.78571 0,21.78572 -21.78572,0 -21.78571,0 0,-21.78572 z"
       id="path3776"
       inkscape:connector-curvature="0" />
    <path
       style="color:#000000;fill:#ffffff;fill-opacity:1;fill-rule:nonzero;stroke:none;stroke-width:2.69000006;marker:none;visibility:visible;display:inline;overflow:visible;enable-background:accumulate"
       d="m 109.13889,445.91542 0,-21.78571 21.78571,0 21.78572,0 0,21.78571 0,21.78572 -21.78572,0 -21.78571,0 0,-21.78572 z"
       id="path3778"
       inkscape:connector-curvature="0" />
    <path
       style="color:#000000;fill:#ffffff;fill-opacity:1;fill-rule:nonzero;stroke:none;stroke-width:2.69000006;marker:none;visibility:visible;display:inline;overflow:visible;enable-background:accumulate"
       d="m 109.13889,445.91542 0,-21.78571 21.78571,0 21.78572,0 0,21.78571 0,21.78572 -21.78572,0 -21.78571,0 0,-21.78572 z"
       id="path3780"
       inkscape:connector-curvature="0" />
    <path
       style="color:#000000;fill:#ffffff;fill-opacity:1;fill-rule:nonzero;stroke:none;stroke-width:2.69000006;marker:none;visibility:visible;display:inline;overflow:visible;enable-background:accumulate"
       d="m 109.13889,445.91542 0,-21.78571 21.78571,0 21.78572,0 0,21.78571 0,21.78572 -21.78572,0 -21.78571,0 0,-21.78572 z"
       id="path3782"
       inkscape:connector-curvature="0" />
    <path
       style="color:#000000;fill:#ffffff;fill-opacity:1;fill-rule:nonzero;stroke:none;stroke-width:2.69000006;marker:none;visibility:visible;display:inline;overflow:visible;enable-background:accumulate"
       d="m 109.13889,445.91542 0,-21.78571 21.78571,0 21.78572,0 0,21.78571 0,21.78572 -21.78572,0 -21.78571,0 0,-21.78572 z"
       id="path3784"
       inkscape:connector-curvature="0" />
    <path
       style="color:#000000;fill:none;stroke:none;stroke-width:2.69000006;marker:none;visibility:visible;display:inline;overflow:visible;enable-background:accumulate"
       d="m 109.13889,445.91542 0,-21.78571 21.78571,0 21.78572,0 0,21.78571 0,21.78572 -21.78572,0 -21.78571,0 0,-21.78572 z"
       id="path3786"
       inkscape:connector-curvature="0" />
    <path
       style="color:#000000;fill:none;stroke:none;stroke-width:2.69000006;marker:none;visibility:visible;display:inline;overflow:visible;enable-background:accumulate"
       d="m 154.13889,445.91542 0,-21.78571 21.78571,0 21.78572,0 0,21.78571 0,21.78572 -21.78572,0 -21.78571,0 0,-21.78572 z"
       id="path3788"
       inkscape:connector-curvature="0" />
    <path
       style="color:#000000;fill:#ff0000;fill-opacity:1;fill-rule:nonzero;stroke:none;stroke-width:2.69000006;marker:none;visibility:visible;display:inline;overflow:visible;enable-background:accumulate"
       d="m 243.74221,445.91542 c -3.1e-4,-12.17857 0.0971,-17.26113 0.21643,-11.29458 0.11934,5.96656 0.11958,15.93084 5.5e-4,22.14286 -0.11904,6.21202 -0.21668,1.33029 -0.21698,-10.84828 z"
       id="path3790"
       inkscape:connector-curvature="0" />
    <path
       style="color:#000000;fill:none;stroke:none;stroke-width:2.69000006;marker:none;visibility:visible;display:inline;overflow:visible;enable-background:accumulate"
       d="m 199.85317,445.91542 0,-21.78571 21.78572,0 21.78571,0 0,21.78571 0,21.78572 -21.78571,0 -21.78572,0 0,-21.78572 z"
       id="path3792"
       inkscape:connector-curvature="0" />
    <path
       style="color:#000000;fill:none;stroke:none;stroke-width:2.69000006;marker:none;visibility:visible;display:inline;overflow:visible;enable-background:accumulate"
       d="m 244.85317,445.91542 0,-21.78571 21.78572,0 21.78571,0 0,21.78571 0,21.78572 -21.78571,0 -21.78572,0 0,-21.78572 z"
       id="path3794"
       inkscape:connector-curvature="0" />
    <path
       style="color:#000000;fill:none;stroke:none;stroke-width:2.69000006;marker:none;visibility:visible;display:inline;overflow:visible;enable-background:accumulate"
       d="m 290.56746,445.91542 0,-21.78571 21.78571,0 21.78572,0 0,21.78571 0,21.78572 -21.78572,0 -21.78571,0 0,-21.78572 z"
       id="path3796"
       inkscape:connector-curvature="0" />
    <path
       style="color:#000000;fill:none;stroke:none;stroke-width:2.69000006;marker:none;visibility:visible;display:inline;overflow:visible;enable-background:accumulate"
       d="m 335.56746,445.91542 0,-21.78571 21.78571,0 21.78572,0 0,21.78571 0,21.78572 -21.78572,0 -21.78571,0 0,-21.78572 z"
       id="path3798"
       inkscape:connector-curvature="0" />
    <path
       style="color:#000000;fill:none;stroke:none;stroke-width:2.69000006;marker:none;visibility:visible;display:inline;overflow:visible;enable-background:accumulate"
       d="m 381.28175,445.91542 0,-21.78571 21.78571,0 21.78571,0 0,21.78571 0,21.78572 -21.78571,0 -21.78571,0 0,-21.78572 z"
       id="path3800"
       inkscape:connector-curvature="0" />
    <path
       style="color:#000000;fill:none;stroke:none;stroke-width:2.69000006;marker:none;visibility:visible;display:inline;overflow:visible;enable-background:accumulate"
       d="m 426.28175,445.91542 0,-21.78571 21.78571,0 21.78571,0 0,21.78571 0,21.78572 -21.78571,0 -21.78571,0 0,-21.78572 z"
       id="path3802"
       inkscape:connector-curvature="0" />
    <path
       style="color:#000000;fill:none;stroke:none;stroke-width:2.69000006;marker:none;visibility:visible;display:inline;overflow:visible;enable-background:accumulate"
       d="m 471.99603,445.91542 0,-21.78571 21.78572,0 21.78571,0 0,21.78571 0,21.78572 -21.78571,0 -21.78572,0 0,-21.78572 z"
       id="path3804"
       inkscape:connector-curvature="0" />
    <path
       style="color:#000000;fill:none;stroke:none;stroke-width:2.69000006;marker:none;visibility:visible;display:inline;overflow:visible;enable-background:accumulate"
       d="m 471.99603,400.55828 0,-22.14286 21.78572,0 21.78571,0 0,22.14286 0,22.14286 -21.78571,0 -21.78572,0 0,-22.14286 z"
       id="path3806"
       inkscape:connector-curvature="0" />
    <path
       style="color:#000000;fill:none;stroke:none;stroke-width:2.69000006;marker:none;visibility:visible;display:inline;overflow:visible;enable-background:accumulate"
       d="m 471.99603,355.20114 0,-21.78572 21.78572,0 21.78571,0 0,21.78572 0,21.78571 -21.78571,0 -21.78572,0 0,-21.78571 z"
       id="path3808"
       inkscape:connector-curvature="0" />
    <path
       style="color:#000000;fill:none;stroke:none;stroke-width:2.69000006;marker:none;visibility:visible;display:inline;overflow:visible;enable-background:accumulate"
       d="m 109.13889,491.27256 0,-22.14285 21.78571,0 21.78572,0 0,22.14285 0,22.14286 -21.78572,0 -21.78571,0 0,-22.14286 z"
       id="path3810"
       inkscape:connector-curvature="0" />
    <path
       style="color:#000000;fill:#808080;fill-opacity:1;fill-rule:nonzero;stroke:none;stroke-width:0;marker:none;visibility:visible;display:inline;overflow:visible;enable-background:accumulate"
       d="m 273.38209,22.852397 0,-22.15317954 21.96428,0.18889418 21.96429,0.18889426 0.18889,21.9642861 0.1889,21.964285 -22.15318,0 -22.15318,0 0,-22.15318 z"
       id="path4397"
       inkscape:connector-curvature="0"
       transform="translate(107.625,286.71875)" />
    <path
       style="color:#000000;fill:#808080;fill-opacity:1;fill-rule:nonzero;stroke:none;stroke-width:0;marker:none;visibility:visible;display:inline;overflow:visible;enable-background:accumulate"
       d="m 273.38209,68.577006 0,-22.142857 22.14285,0 22.14286,0 0,22.142857 0,22.142857 -22.14286,0 -22.14285,0 0,-22.142857 z"
       id="path4399"
       inkscape:connector-curvature="0"
       transform="translate(107.625,286.71875)" />
    <path
       style="color:#000000;fill:#808080;fill-opacity:1;fill-rule:nonzero;stroke:none;stroke-width:0;marker:none;visibility:visible;display:inline;overflow:visible;enable-background:accumulate"
       d="m 318.38209,68.577006 0,-22.142857 22.14285,0 22.14286,0 0,22.142857 0,22.142857 -22.14286,0 -22.14285,0 0,-22.142857 z"
       id="path4401"
       inkscape:connector-curvature="0"
       transform="translate(107.625,286.71875)" />
    <path
       style="color:#000000;fill:#808080;fill-opacity:1;fill-rule:nonzero;stroke:none;stroke-width:0;marker:none;visibility:visible;display:inline;overflow:visible;enable-background:accumulate"
       d="m 318.38209,22.86272 0,-22.142857 22.14285,0 22.14286,0 0,22.142857 0,22.142857 -22.14286,0 -22.14285,0 0,-22.142857 z"
       id="path4403"
       inkscape:connector-curvature="0"
       transform="translate(107.625,286.71875)" />
    <path
       style="color:#000000;fill:#808080;fill-opacity:1;fill-rule:nonzero;stroke:none;stroke-width:0;marker:none;visibility:visible;display:inline;overflow:visible;enable-background:accumulate"
       d="m 46.23923,68.577006 0,-22.142857 22.142857,0 22.142857,0 0,22.142857 0,22.142857 -22.142857,0 -22.142857,0 0,-22.142857 z"
       id="path4405"
       inkscape:connector-curvature="0"
       transform="translate(107.625,286.71875)" />
    <path
       style="color:#000000;fill:#808080;fill-opacity:1;fill-rule:nonzero;stroke:none;stroke-width:0;marker:none;visibility:visible;display:inline;overflow:visible;enable-background:accumulate"
       d="m 91.953516,68.577006 0,-22.142857 22.142854,0 22.14286,0 0,22.142857 0,22.142857 -22.14286,0 -22.142854,0 0,-22.142857 z"
       id="path4407"
       inkscape:connector-curvature="0"
       transform="translate(107.625,286.71875)" />
    <path
       style="color:#000000;fill:#808080;fill-opacity:1;fill-rule:nonzero;stroke:none;stroke-width:0;marker:none;visibility:visible;display:inline;overflow:visible;enable-background:accumulate"
       d="m 136.95352,68.577006 0,-22.142857 22.14285,0 22.14286,0 0,22.142857 0,22.142857 -22.14286,0 -22.14285,0 0,-22.142857 z"
       id="path4409"
       inkscape:connector-curvature="0"
       transform="translate(107.625,286.71875)" />
    <path
       style="color:#000000;fill:#808080;fill-opacity:1;fill-rule:nonzero;stroke:none;stroke-width:0;marker:none;visibility:visible;display:inline;overflow:visible;enable-background:accumulate"
       d="m 46.23923,113.57701 0,-22.142861 22.142857,0 22.142857,0 0,22.142861 0,22.14285 -22.142857,0 -22.142857,0 0,-22.14285 z"
       id="path4411"
       inkscape:connector-curvature="0"
       transform="translate(107.625,286.71875)" />
    <path
       style="color:#000000;fill:#808080;fill-opacity:1;fill-rule:nonzero;stroke:none;stroke-width:0;marker:none;visibility:visible;display:inline;overflow:visible;enable-background:accumulate"
       d="m 91.953516,113.56668 0,-22.153177 21.964284,0.188894 21.96429,0.188895 0.18889,21.964288 0.1889,21.96428 -22.15318,0 -22.153184,0 0,-22.15318 z"
       id="path4413"
       inkscape:connector-curvature="0"
       transform="translate(107.625,286.71875)" />
    <path
       style="color:#000000;fill:#808080;fill-opacity:1;fill-rule:nonzero;stroke:none;stroke-width:0;marker:none;visibility:visible;display:inline;overflow:visible;enable-background:accumulate"
       d="m 46.23923,159.29129 0,-22.14286 22.142857,0 22.142857,0 0,22.14286 0,22.14286 -22.142857,0 -22.142857,0 0,-22.14286 z"
       id="path4415"
       inkscape:connector-curvature="0"
       transform="translate(107.625,286.71875)" />
    <path
       style="color:#000000;fill:#808080;fill-opacity:1;fill-rule:nonzero;stroke:none;stroke-width:0;marker:none;visibility:visible;display:inline;overflow:visible;enable-background:accumulate"
       d="m 1.23923,250.00558 0,-22.14286 22.142857,0 22.142857,0 0,22.14286 0,22.14285 -22.142857,0 -22.142857,0 0,-22.14285 z"
       id="path4419"
       inkscape:connector-curvature="0"
       transform="translate(107.625,286.71875)" />
    <path
       style="color:#000000;fill:#808080;fill-opacity:1;fill-rule:nonzero;stroke:none;stroke-width:0;marker:none;visibility:visible;display:inline;overflow:visible;enable-background:accumulate"
       d="m 46.23923,340.71986 0,-22.14285 22.142857,0 22.142857,0 0,22.14285 0,22.14286 -22.142857,0 -22.142857,0 0,-22.14286 z"
       id="path4421"
       inkscape:connector-curvature="0"
       transform="translate(107.625,286.71875)" />
    <path
       style="color:#000000;fill:#808080;fill-opacity:1;fill-rule:nonzero;stroke:none;stroke-width:0;marker:none;visibility:visible;display:inline;overflow:visible;enable-background:accumulate"
       d="m 91.953516,340.71986 0,-22.14285 22.142854,0 22.14286,0 0,22.14285 0,22.14286 -22.14286,0 -22.142854,0 0,-22.14286 z"
       id="path4423"
       inkscape:connector-curvature="0"
       transform="translate(107.625,286.71875)" />
    <path
       style="color:#000000;fill:#808080;fill-opacity:1;fill-rule:nonzero;stroke:none;stroke-width:0;marker:none;visibility:visible;display:inline;overflow:visible;enable-background:accumulate"
       d="m 46.23923,385.71986 0,-22.14285 22.142857,0 22.142857,0 0,22.14285 0,22.14286 -22.142857,0 -22.142857,0 0,-22.14286 z"
       id="path4425"
       inkscape:connector-curvature="0"
       transform="translate(107.625,286.71875)" />
    <path
       style="color:#000000;fill:#808080;fill-opacity:1;fill-rule:nonzero;stroke:none;stroke-width:0;marker:none;visibility:visible;display:inline;overflow:visible;enable-background:accumulate"
       d="m 91.953516,385.70954 0,-22.15318 21.964284,0.18889 21.96429,0.1889 0.18889,21.96428 0.1889,21.96429 -22.15318,0 -22.153184,0 0,-22.15318 z"
       id="path4433"
       inkscape:connector-curvature="0"
       transform="translate(107.625,286.71875)" />
    <path
       style="color:#000000;fill:#808080;fill-opacity:1;fill-rule:nonzero;stroke:none;stroke-width:0;marker:none;visibility:visible;display:inline;overflow:visible;enable-background:accumulate"
       d="m 273.38209,431.43415 0,-22.14286 22.14285,0 22.14286,0 0,22.14286 0,22.14286 -22.14286,0 -22.14285,0 0,-22.14286 z"
       id="path4435"
       inkscape:connector-curvature="0"
       transform="translate(107.625,286.71875)" />
    <path
       style="color:#000000;fill:#808080;fill-opacity:1;fill-rule:nonzero;stroke:none;stroke-width:0;marker:none;visibility:visible;display:inline;overflow:visible;enable-background:accumulate"
       d="M 0.14110864,453.39843 C -0.0453415,452.90736 -0.11561071,350.77343 -0.01504507,226.43415 L 0.16780143,0.36272014 227.13209,0.18303786 454.09637,0.00335562 l 0,227.14396438 0,227.14397 -226.80813,0 c -180.789514,0 -226.87691314,-0.18116 -227.14713136,-0.89286 z m 45.38383536,-21.96428 0,-22.14286 -22.5,0 -22.49999971,0 0,22.14286 0,22.14286 22.49999971,0 22.5,0 0,-22.14286 z m 45,0 0,-22.14286 -22.142857,0 -22.142857,0 0,22.14286 0,22.14286 22.142857,0 22.142857,0 0,-22.14286 z m 45.714286,0 0,-22.14286 -22.5,0 -22.5,0 0,22.14286 0,22.14286 22.5,0 22.5,0 0,-22.14286 z m 45,0 0,-22.14286 -22.14286,0 -22.14285,0 0,22.14286 0,22.14286 22.14285,0 22.14286,0 0,-22.14286 z m 45.71429,0 0,-22.14286 -22.5,0 -22.5,0 0,22.14286 0,22.14286 22.5,0 22.5,0 0,-22.14286 z m 45,0 0,-22.14286 -22.14286,0 -22.14286,0 0,22.14286 0,22.14286 22.14286,0 22.14286,0 0,-22.14286 z m 45.71428,0 0,-22.14286 -22.5,0 -22.5,0 0,22.14286 0,22.14286 22.5,0 22.5,0 0,-22.14286 z m 45,0 0,-22.14286 -22.14286,0 -22.14285,0 0,22.14286 0,22.14286 22.14285,0 22.14286,0 0,-22.14286 z m 45.71429,0 0,-22.14286 -22.5,0 -22.5,0 0,22.14286 0,22.14286 22.5,0 22.5,0 0,-22.14286 z m 45,0 0,-22.14286 -22.14286,0 -22.14286,0 0,22.14286 0,22.14286 22.14286,0 22.14286,0 0,-22.14286 z m -408.025526,-45.54591 0.188761,-22.33161 -22.331619,0.18875 -22.33161886,0.18877 -0.18946328,21.42076 c -0.10420479,11.78142 -0.0321486,21.83072 0.16012514,22.33178 0.2751081,0.71692 5.0330446,0.87077 22.33232,0.72209 l 21.982732,-0.18892 0.188763,-22.33162 z m 45.16838,0.18877 0,-22.5 -22.142857,0 -22.142857,0 0,22.5 0,22.5 22.142857,0 22.142857,0 0,-22.5 z m 45.545906,-0.18877 0.18876,-22.33161 -22.33162,0.18875 -22.331617,0.18877 -0.189464,21.42076 c -0.104208,11.78142 -0.03214,21.83072 0.160128,22.33178 0.275107,0.71692 5.033043,0.87077 22.332323,0.72209 l 21.98273,-0.18892 0.18876,-22.33162 z m 45.16838,0.18877 0,-22.5 -22.14286,0 -22.14285,0 0,22.5 0,22.5 22.14285,0 22.14286,0 0,-22.5 z m 45.54591,-0.18877 0.18875,-22.33161 -22.33161,0.18875 -22.33162,0.18877 -0.18947,21.42076 c -0.1042,11.78142 -0.0321,21.83072 0.16013,22.33178 0.27511,0.71692 5.03305,0.87077 22.33232,0.72209 l 21.98273,-0.18892 0.18877,-22.33162 z m 45.16838,0.18877 0,-22.5 -22.14286,0 -22.14286,0 0,22.5 0,22.5 22.14286,0 22.14286,0 0,-22.5 z m 45.5459,-0.18877 0.18876,-22.33161 -22.33161,0.18875 -22.33163,0.18877 -0.18946,21.42076 c -0.10421,11.78142 -0.0321,21.83072 0.16013,22.33178 0.27511,0.71692 5.03304,0.87077 22.33232,0.72209 l 21.98273,-0.18892 0.18876,-22.33162 z m 45.16838,0.18877 0,-22.5 -22.14286,0 -22.14285,0 0,22.5 0,22.5 22.14285,0 22.14286,0 0,-22.5 z m 45.54591,-0.18877 0.18876,-22.33161 -22.33162,0.18875 -22.33162,0.18877 -0.18946,21.42076 c -0.10421,11.78142 -0.0322,21.83072 0.16012,22.33178 0.27511,0.71692 5.03305,0.87077 22.33233,0.72209 l 21.98272,-0.18892 0.18877,-22.33162 z m 45.16838,0.18877 0,-22.5 -22.14286,0 -22.14286,0 0,22.5 0,22.5 22.14286,0 22.14286,0 0,-22.5 z m -407.857146,-45.35715 0,-22.14285 -22.5,0 -22.49999971,0 0,22.14285 0,22.14286 22.49999971,0 22.5,0 0,-22.14286 z m 45,0 0,-22.14285 -22.142857,0 -22.142857,0 0,22.14285 0,22.14286 22.142857,0 22.142857,0 0,-22.14286 z m 45.714286,0 0,-22.14285 -22.5,0 -22.5,0 0,22.14285 0,22.14286 22.5,0 22.5,0 0,-22.14286 z m 45,0 0,-22.14285 -22.14286,0 -22.14285,0 0,22.14285 0,22.14286 22.14285,0 22.14286,0 0,-22.14286 z m 45.71429,0 0,-22.14285 -22.5,0 -22.5,0 0,22.14285 0,22.14286 22.5,0 22.5,0 0,-22.14286 z m 45,0 0,-22.14285 -22.14286,0 -22.14286,0 0,22.14285 0,22.14286 22.14286,0 22.14286,0 0,-22.14286 z m 45.71428,0 0,-22.14285 -22.5,0 -22.5,0 0,22.14285 0,22.14286 22.5,0 22.5,0 0,-22.14286 z m 45,0 0,-22.14285 -22.14286,0 -22.14285,0 0,22.14285 0,22.14286 22.14285,0 22.14286,0 0,-22.14286 z m 45.71429,0 0,-22.14285 -22.5,0 -22.5,0 0,22.14285 0,22.14286 22.5,0 22.5,0 0,-22.14286 z m 45,0 0,-22.14285 -22.14286,0 -22.14286,0 0,22.14285 0,22.14286 22.14286,0 22.14286,0 0,-22.14286 z m -408.025526,-45.5459 0.188761,-22.33162 -22.331619,0.18876 -22.33161886,0.18876 -0.18946328,21.42077 c -0.10420479,11.78142 -0.0321486,21.83072 0.16012514,22.33178 0.2751081,0.71692 5.0330446,0.87076 22.33232,0.72209 l 21.982732,-0.18892 0.188763,-22.33162 z m 45.16838,0.18876 0,-22.5 -22.142857,0 -22.142857,0 0,22.5 0,22.5 22.142857,0 22.142857,0 0,-22.5 z m 45.545906,-0.18876 0.18876,-22.33162 -22.33162,0.18876 -22.331617,0.18876 -0.189464,21.42077 c -0.104208,11.78142 -0.03214,21.83072 0.160128,22.33178 0.275107,0.71692 5.033043,0.87076 22.332323,0.72209 l 21.98273,-0.18892 0.18876,-22.33162 z m 45.16838,0.18876 0,-22.5 -22.14286,0 -22.14285,0 0,22.5 0,22.5 22.14285,0 22.14286,0 0,-22.5 z m 45.54591,-0.18876 0.18875,-22.33162 -22.33161,0.18876 -22.33162,0.18876 -0.18947,21.42077 c -0.1042,11.78142 -0.0321,21.83072 0.16013,22.33178 0.27511,0.71692 5.03305,0.87076 22.33232,0.72209 l 21.98273,-0.18892 0.18877,-22.33162 z m 45.16838,0.18876 0,-22.5 -22.14286,0 -22.14286,0 0,22.5 0,22.5 22.14286,0 22.14286,0 0,-22.5 z m 45.5459,-0.18876 0.18876,-22.33162 -22.33161,0.18876 -22.33163,0.18876 -0.18946,21.42077 c -0.10421,11.78142 -0.0321,21.83072 0.16013,22.33178 0.27511,0.71692 5.03304,0.87076 22.33232,0.72209 l 21.98273,-0.18892 0.18876,-22.33162 z m 45.16838,0.18876 0,-22.5 -22.14286,0 -22.14285,0 0,22.5 0,22.5 22.14285,0 22.14286,0 0,-22.5 z m 45.54591,-0.18876 0.18876,-22.33162 -22.33162,0.18876 -22.33162,0.18876 -0.18946,21.42077 c -0.10421,11.78142 -0.0322,21.83072 0.16012,22.33178 0.27511,0.71692 5.03305,0.87076 22.33233,0.72209 l 21.98272,-0.18892 0.18877,-22.33162 z m 45.16838,0.18876 0,-22.5 -22.14286,0 -22.14286,0 0,22.5 0,22.5 22.14286,0 22.14286,0 0,-22.5 z m -407.857146,-45.35714 0,-22.14286 -22.5,0 -22.49999971,0 0,22.14286 0,22.14285 22.49999971,0 22.5,0 0,-22.14285 z m 45,0 0,-22.14286 -22.142857,0 -22.142857,0 0,22.14286 0,22.14285 22.142857,0 22.142857,0 0,-22.14285 z m 45.714286,0 0,-22.14286 -22.5,0 -22.5,0 0,22.14286 0,22.14285 22.5,0 22.5,0 0,-22.14285 z m 45,0 0,-22.14286 -22.14286,0 -22.14285,0 0,22.14286 0,22.14285 22.14285,0 22.14286,0 0,-22.14285 z m 45.71429,0 0,-22.14286 -22.5,0 -22.5,0 0,22.14286 0,22.14285 22.5,0 22.5,0 0,-22.14285 z m 45,0 0,-22.14286 -22.14286,0 -22.14286,0 0,22.14286 0,22.14285 22.14286,0 22.14286,0 0,-22.14285 z m 45.71428,0 0,-22.14286 -22.5,0 -22.5,0 0,22.14286 0,22.14285 22.5,0 22.5,0 0,-22.14285 z m 45,0 0,-22.14286 -22.14286,0 -22.14285,0 0,22.14286 0,22.14285 22.14285,0 22.14286,0 0,-22.14285 z m 45.71429,0 0,-22.14286 -22.5,0 -22.5,0 0,22.14286 0,22.14285 22.5,0 22.5,0 0,-22.14285 z m 45,0 0,-22.14286 -22.14286,0 -22.14286,0 0,22.14286 0,22.14285 22.14286,0 22.14286,0 0,-22.14285 z m -408.025526,-45.54591 0.188761,-22.33161 -22.331619,0.18875 -22.33161886,0.18877 -0.18946328,21.42076 c -0.10420479,11.78142 -0.0321486,21.83072 0.16012514,22.33178 0.2751081,0.71692 5.0330446,0.87076 22.33232,0.72209 l 21.982732,-0.18892 0.188763,-22.33162 z m 45.16838,0.18876 0,-22.5 -22.142857,0 -22.142857,0 0,22.5 0,22.5 22.142857,0 22.142857,0 0,-22.5 z m 45.545906,-0.18876 0.18876,-22.33161 -22.33162,0.18875 -22.331617,0.18877 -0.189464,21.42076 c -0.104208,11.78142 -0.03214,21.83072 0.160128,22.33178 0.275107,0.71692 5.033043,0.87076 22.332323,0.72209 l 21.98273,-0.18892 0.18876,-22.33162 z m 45.16838,0.18876 0,-22.5 -22.14286,0 -22.14285,0 0,22.5 0,22.5 22.14285,0 22.14286,0 0,-22.5 z m 45.54591,-0.18876 0.18875,-22.33161 -22.33161,0.18875 -22.33162,0.18877 -0.18947,21.42076 c -0.1042,11.78142 -0.0321,21.83072 0.16013,22.33178 0.27511,0.71692 5.03305,0.87076 22.33232,0.72209 l 21.98273,-0.18892 0.18877,-22.33162 z m 45.16838,0.18876 0,-22.5 -22.14286,0 -22.14286,0 0,22.5 0,22.5 22.14286,0 22.14286,0 0,-22.5 z m 45.5459,-0.18876 0.18876,-22.33161 -22.33161,0.18875 -22.33163,0.18877 -0.18946,21.42076 c -0.10421,11.78142 -0.0321,21.83072 0.16013,22.33178 0.27511,0.71692 5.03304,0.87076 22.33232,0.72209 l 21.98273,-0.18892 0.18876,-22.33162 z m 45.16838,0.18876 0,-22.5 -22.14286,0 -22.14285,0 0,22.5 0,22.5 22.14285,0 22.14286,0 0,-22.5 z m 45.54591,-0.18876 0.18876,-22.33161 -22.33162,0.18875 -22.33162,0.18877 -0.18946,21.42076 c -0.10421,11.78142 -0.0322,21.83072 0.16012,22.33178 0.27511,0.71692 5.03305,0.87076 22.33233,0.72209 l 21.98272,-0.18892 0.18877,-22.33162 z m 45.16838,0.18876 0,-22.5 -22.14286,0 -22.14286,0 0,22.5 0,22.5 22.14286,0 22.14286,0 0,-22.5 z m -407.857146,-45.35714 0,-22.14286 -22.5,0 -22.49999971,0 0,22.14286 0,22.14286 22.49999971,0 22.5,0 0,-22.14286 z m 45,0 0,-22.14286 -22.142857,0 -22.142857,0 0,22.14286 0,22.14286 22.142857,0 22.142857,0 0,-22.14286 z m 45.714286,0 0,-22.14286 -22.5,0 -22.5,0 0,22.14286 0,22.14286 22.5,0 22.5,0 0,-22.14286 z m 45,0 0,-22.14286 -22.14286,0 -22.14285,0 0,22.14286 0,22.14286 22.14285,0 22.14286,0 0,-22.14286 z m 45.71429,0 0,-22.14286 -22.5,0 -22.5,0 0,22.14286 0,22.14286 22.5,0 22.5,0 0,-22.14286 z m 45,0 0,-22.14286 -22.14286,0 -22.14286,0 0,22.14286 0,22.14286 22.14286,0 22.14286,0 0,-22.14286 z m 45.71428,0 0,-22.14286 -22.5,0 -22.5,0 0,22.14286 0,22.14286 22.5,0 22.5,0 0,-22.14286 z m 45,0 0,-22.14286 -22.14286,0 -22.14285,0 0,22.14286 0,22.14286 22.14285,0 22.14286,0 0,-22.14286 z m 45.71429,0 0,-22.14286 -22.5,0 -22.5,0 0,22.14286 0,22.14286 22.5,0 22.5,0 0,-22.14286 z m 45,0 0,-22.14286 -22.14286,0 -22.14286,0 0,22.14286 0,22.14286 22.14286,0 22.14286,0 0,-22.14286 z M 45.356564,113.74538 45.545325,91.41377 23.213706,91.602527 0.88208714,91.791292 0.69262386,113.21206 c -0.10420479,11.78142 -0.0321486,21.83072 0.16012514,22.33177 0.2751081,0.71693 5.0330446,0.87077 22.33232,0.7221 l 21.982732,-0.18892 0.188763,-22.33163 z m 45.16838,0.18877 0,-22.500001 -22.142857,0 -22.142857,0 0,22.500001 0,22.5 22.142857,0 22.142857,0 0,-22.5 z m 45.545906,-0.18877 0.18876,-22.33161 -22.33162,0.188757 -22.331617,0.188765 -0.189464,21.420768 c -0.104208,11.78142 -0.03214,21.83072 0.160128,22.33177 0.275107,0.71693 5.033043,0.87077 22.332323,0.7221 l 21.98273,-0.18892 0.18876,-22.33163 z m 45.16838,0.18877 0,-22.500001 -22.14286,0 -22.14285,0 0,22.500001 0,22.5 22.14285,0 22.14286,0 0,-22.5 z m 45.54591,-0.18877 0.18875,-22.33161 -22.33161,0.188757 -22.33162,0.188765 -0.18947,21.420768 c -0.1042,11.78142 -0.0321,21.83072 0.16013,22.33177 0.27511,0.71693 5.03305,0.87077 22.33232,0.7221 l 21.98273,-0.18892 0.18877,-22.33163 z m 45.16838,0.18877 0,-22.500001 -22.14286,0 -22.14286,0 0,22.500001 0,22.5 22.14286,0 22.14286,0 0,-22.5 z m 45.5459,-0.18877 0.18876,-22.33161 -22.33161,0.188757 -22.33163,0.188765 -0.18946,21.420768 c -0.10421,11.78142 -0.0321,21.83072 0.16013,22.33177 0.27511,0.71693 5.03304,0.87077 22.33232,0.7221 l 21.98273,-0.18892 0.18876,-22.33163 z m 45.16838,0.18877 0,-22.500001 -22.14286,0 -22.14285,0 0,22.500001 0,22.5 22.14285,0 22.14286,0 0,-22.5 z m 45.54591,-0.18877 0.18876,-22.33161 -22.33162,0.188757 -22.33162,0.188765 -0.18946,21.420768 c -0.10421,11.78142 -0.0322,21.83072 0.16012,22.33177 0.27511,0.71693 5.03305,0.87077 22.33233,0.7221 l 21.98272,-0.18892 0.18877,-22.33163 z m 45.16838,0.18877 0,-22.500001 -22.14286,0 -22.14286,0 0,22.500001 0,22.5 22.14286,0 22.14286,0 0,-22.5 z M 45.524944,68.577006 l 0,-22.142857 -22.5,0 -22.49999971,0 0,22.142857 0,22.142857 22.49999971,0 22.5,0 0,-22.142857 z m 45,0 0,-22.142857 -22.142857,0 -22.142857,0 0,22.142857 0,22.142857 22.142857,0 22.142857,0 0,-22.142857 z m 45.714286,0 0,-22.142857 -22.5,0 -22.5,0 0,22.142857 0,22.142857 22.5,0 22.5,0 0,-22.142857 z m 45,0 0,-22.142857 -22.14286,0 -22.14285,0 0,22.142857 0,22.142857 22.14285,0 22.14286,0 0,-22.142857 z m 45.71429,0 0,-22.142857 -22.5,0 -22.5,0 0,22.142857 0,22.142857 22.5,0 22.5,0 0,-22.142857 z m 45,0 0,-22.142857 -22.14286,0 -22.14286,0 0,22.142857 0,22.142857 22.14286,0 22.14286,0 0,-22.142857 z m 45.71428,0 0,-22.142857 -22.5,0 -22.5,0 0,22.142857 0,22.142857 22.5,0 22.5,0 0,-22.142857 z m 45,0 0,-22.142857 -22.14286,0 -22.14285,0 0,22.142857 0,22.142857 22.14285,0 22.14286,0 0,-22.142857 z m 45.71429,0 0,-22.142857 -22.5,0 -22.5,0 0,22.142857 0,22.142857 22.5,0 22.5,0 0,-22.142857 z m 45,0 0,-22.142857 -22.14286,0 -22.14286,0 0,22.142857 0,22.142857 22.14286,0 22.14286,0 0,-22.142857 z M 45.356564,23.031101 45.545325,0.69948214 23.213706,0.888244 0.88208714,1.0770059 0.69262386,22.497771 C 0.58841907,34.279192 0.66047536,44.328492 0.852749,44.829549 c 0.2751081,0.71692 5.0330446,0.870763 22.33232,0.722092 L 45.167801,45.36272 45.356564,23.031101 z m 45.16838,0.188762 0,-22.5 -22.142857,0 -22.142857,0 0,22.5 0,22.5 22.142857,0 22.142857,0 0,-22.5 z M 136.07085,23.031101 136.25961,0.69948214 113.92799,0.888244 91.596373,1.0770059 91.406909,22.497771 c -0.104208,11.781421 -0.03214,21.830721 0.160128,22.331778 0.275107,0.71692 5.033043,0.870763 22.332323,0.722092 l 21.98273,-0.188921 0.18876,-22.331619 z m 45.16838,0.188762 0,-22.5 -22.14286,0 -22.14285,0 0,22.5 0,22.5 22.14285,0 22.14286,0 0,-22.5 z M 226.78514,23.031101 226.97389,0.69948214 204.64228,0.888244 182.31066,1.0770059 182.12119,22.497771 c -0.1042,11.781421 -0.0321,21.830721 0.16013,22.331778 0.27511,0.71692 5.03305,0.870763 22.33232,0.722092 l 21.98273,-0.188921 0.18877,-22.331619 z m 45.16838,0.188762 0,-22.5 -22.14286,0 -22.14286,0 0,22.5 0,22.5 22.14286,0 22.14286,0 0,-22.5 z m 45.5459,-0.188762 0.18876,-22.33161886 -22.33161,0.18876186 -22.33163,0.1887619 -0.18946,21.4207651 c -0.10421,11.781421 -0.0321,21.830721 0.16013,22.331778 0.27511,0.71692 5.03304,0.870763 22.33232,0.722092 l 21.98273,-0.188921 0.18876,-22.331619 z m 45.16838,0.188762 0,-22.5 -22.14286,0 -22.14285,0 0,22.5 0,22.5 22.14285,0 22.14286,0 0,-22.5 z M 408.21371,23.031101 408.40247,0.69948214 386.07085,0.888244 363.73923,1.0770059 363.54977,22.497771 c -0.10421,11.781421 -0.0322,21.830721 0.16012,22.331778 0.27511,0.71692 5.03305,0.870763 22.33233,0.722092 l 21.98272,-0.188921 0.18877,-22.331619 z m 45.16838,0.188762 0,-22.5 -22.14286,0 -22.14286,0 0,22.5 0,22.5 22.14286,0 22.14286,0 0,-22.5 z"
       id="path4439"
       inkscape:connector-curvature="0"
       transform="translate(107.625,286.71875)" />
    <path
       style="color:#000000;fill:#808080;fill-opacity:1;fill-rule:nonzero;stroke:none;stroke-width:0;marker:none;visibility:visible;display:inline;overflow:visible;enable-background:accumulate"
       d="m 318.38209,204.29129 0,-22.14286 22.14285,0 22.14286,0 0,22.14286 0,22.14286 -22.14286,0 -22.14285,0 0,-22.14286 z"
       id="path4441"
       inkscape:connector-curvature="0"
       transform="translate(107.625,286.71875)" />
    <path
       style="color:#000000;fill:#808080;fill-opacity:1;fill-rule:nonzero;stroke:none;stroke-width:0;marker:none;visibility:visible;display:inline;overflow:visible;enable-background:accumulate"
       d="m 364.09637,204.28097 0,-22.15318 21.96429,0.18889 21.96428,0.1889 0.22276,14.64285 c 0.12252,8.05358 0.0112,17.9375 -0.2473,21.96429 l -0.47007,7.32143 -21.71698,0 -21.71698,0 0,-22.15318 z"
       id="path4443"
       inkscape:connector-curvature="0"
       transform="translate(107.625,286.71875)" />
    <path
       style="color:#000000;fill:#808080;fill-opacity:1;fill-rule:nonzero;stroke:none;stroke-width:0;marker:none;visibility:visible;display:inline;overflow:visible;enable-background:accumulate"
       d="m 318.38209,250.00558 0,-22.14286 22.14285,0 22.14286,0 0,22.14286 0,22.14285 -22.14286,0 -22.14285,0 0,-22.14285 z"
       id="path4445"
       inkscape:connector-curvature="0"
       transform="translate(107.625,286.71875)" />
    <path
       style="color:#000000;fill:#808080;fill-opacity:1;fill-rule:nonzero;stroke:none;stroke-width:0;marker:none;visibility:visible;display:inline;overflow:visible;enable-background:accumulate"
       d="m 318.38209,295.00558 0,-22.14286 22.14285,0 22.14286,0 0,22.14286 0,22.14285 -22.14286,0 -22.14285,0 0,-22.14285 z"
       id="path4447"
       inkscape:connector-curvature="0"
       transform="translate(107.625,286.71875)" />
    <path
       style="color:#000000;fill:#808080;fill-opacity:1;fill-rule:nonzero;stroke:none;stroke-width:0;marker:none;visibility:visible;display:inline;overflow:visible;enable-background:accumulate"
       d="m 273.38209,250.00558 0,-22.14286 22.14285,0 22.14286,0 0,22.14286 0,22.14285 -22.14286,0 -22.14285,0 0,-22.14285 z"
       id="path4449"
       inkscape:connector-curvature="0"
       transform="translate(107.625,286.71875)" />
    <path
       style="color:#000000;fill:#808080;fill-opacity:1;fill-rule:nonzero;stroke:none;stroke-width:0;marker:none;visibility:visible;display:inline;overflow:visible;enable-background:accumulate"
       d="m 182.6678,204.28097 0,-22.15318 21.96429,0.18889 21.96428,0.1889 0.1889,21.96428 0.18889,21.96429 -22.15318,0 -22.15318,0 0,-22.15318 z"
       id="path4451"
       inkscape:connector-curvature="0"
       transform="translate(107.625,286.71875)" />
  </g>
</svg>
