<?xml version="1.0" encoding="UTF-8" standalone="no"?>
<!-- Created with Inkscape (http://www.inkscape.org/) -->

<svg
   xmlns:dc="http://purl.org/dc/elements/1.1/"
   xmlns:cc="http://creativecommons.org/ns#"
   xmlns:rdf="http://www.w3.org/1999/02/22-rdf-syntax-ns#"
   xmlns:svg="http://www.w3.org/2000/svg"
   xmlns="http://www.w3.org/2000/svg"
   xmlns:sodipodi="http://sodipodi.sourceforge.net/DTD/sodipodi-0.dtd"
   xmlns:inkscape="http://www.inkscape.org/namespaces/inkscape"
   width="1320.2317"
   height="518.46045"
   id="svg2"
   version="1.1"
   inkscape:version="0.48.4 r9939"
   sodipodi:docname="pic2.pdf">
  <defs
     id="defs4">
    <inkscape:path-effect
       effect="construct_grid"
       id="path-effect3774"
       is_visible="true"
       nr_x="3"
       nr_y="3" />
    <inkscape:path-effect
       effect="construct_grid"
       id="path-effect3774-0"
       is_visible="true"
       nr_x="10"
       nr_y="10" />
  </defs>
  <sodipodi:namedview
     id="base"
     pagecolor="#ffffff"
     bordercolor="#666666"
     borderopacity="1.0"
     inkscape:pageopacity="0.0"
     inkscape:pageshadow="2"
     inkscape:zoom="0.7"
     inkscape:cx="650.83386"
     inkscape:cy="263.68964"
     inkscape:document-units="px"
     inkscape:current-layer="layer1"
     showgrid="false"
     inkscape:window-width="1680"
     inkscape:window-height="1026"
     inkscape:window-x="0"
     inkscape:window-y="24"
     inkscape:window-maximized="1"
     fit-margin-top="0"
     fit-margin-left="0"
     fit-margin-right="0"
     fit-margin-bottom="0" />
  <metadata
     id="metadata7">
    <rdf:RDF>
      <cc:Work
         rdf:about="">
        <dc:format>image/svg+xml</dc:format>
        <dc:type
           rdf:resource="http://purl.org/dc/dcmitype/StillImage" />
        <dc:title></dc:title>
      </cc:Work>
    </rdf:RDF>
  </metadata>
  <g
     inkscape:label="Layer 1"
     inkscape:groupmode="layer"
     id="layer1"
     transform="translate(596.125,-283.9375)">
    <path
       style="color:#000000;fill:#666666;fill-opacity:1;fill-rule:nonzero;stroke:#000000;stroke-width:3.0229423;stroke-linecap:butt;stroke-linejoin:miter;stroke-miterlimit:4;stroke-opacity:1;stroke-dashoffset:0;marker:none;visibility:visible;display:inline;overflow:visible;enable-background:accumulate"
       d="m 561.97595,288.95767 -452.51226,0 m 452.51226,150.59932 -452.51226,0 m 452.51226,150.59932 -452.51226,0 m 452.51226,150.59932 -452.51226,0 m 452.51226,-451.79796 0,451.79796 m -150.83742,-451.79796 0,451.79796 m -150.83742,-451.79796 0,451.79796 m -150.83742,-451.79796 0,451.79796"
       id="rect3769"
       inkscape:path-effect="#path-effect3774"
       inkscape:original-d="m 411.13853,288.95767 150.83742,0 0,150.59932 -150.83742,0 z"
       inkscape:connector-curvature="0" />
    <path
       style="color:#000000;fill:none;stroke:none;stroke-width:2.69000006;marker:none;visibility:visible;display:inline;overflow:visible;enable-background:accumulate"
       d="m 109.13889,445.91542 0,-21.78571 21.78571,0 21.78572,0 0,21.78571 0,21.78572 -21.78572,0 -21.78571,0 0,-21.78572 z"
       id="path3786"
       inkscape:connector-curvature="0" />
    <path
       style="color:#000000;fill:none;stroke:none;stroke-width:2.69000006;marker:none;visibility:visible;display:inline;overflow:visible;enable-background:accumulate"
       d="m 154.13889,445.91542 0,-21.78571 21.78571,0 21.78572,0 0,21.78571 0,21.78572 -21.78572,0 -21.78571,0 0,-21.78572 z"
       id="path3788"
       inkscape:connector-curvature="0" />
    <path
       style="color:#000000;fill:none;stroke:none;stroke-width:2.69000006;marker:none;visibility:visible;display:inline;overflow:visible;enable-background:accumulate"
       d="m 199.85317,445.91542 0,-21.78571 21.78572,0 21.78571,0 0,21.78571 0,21.78572 -21.78571,0 -21.78572,0 0,-21.78572 z"
       id="path3792"
       inkscape:connector-curvature="0" />
    <path
       style="color:#000000;fill:none;stroke:none;stroke-width:2.69000006;marker:none;visibility:visible;display:inline;overflow:visible;enable-background:accumulate"
       d="m 244.85317,445.91542 0,-21.78571 21.78572,0 21.78571,0 0,21.78571 0,21.78572 -21.78571,0 -21.78572,0 0,-21.78572 z"
       id="path3794"
       inkscape:connector-curvature="0" />
    <path
       style="color:#000000;fill:none;stroke:none;stroke-width:2.69000006;marker:none;visibility:visible;display:inline;overflow:visible;enable-background:accumulate"
       d="m 290.56746,445.91542 0,-21.78571 21.78571,0 21.78572,0 0,21.78571 0,21.78572 -21.78572,0 -21.78571,0 0,-21.78572 z"
       id="path3796"
       inkscape:connector-curvature="0" />
    <path
       style="color:#000000;fill:none;stroke:none;stroke-width:2.69000006;marker:none;visibility:visible;display:inline;overflow:visible;enable-background:accumulate"
       d="m 335.56746,445.91542 0,-21.78571 21.78571,0 21.78572,0 0,21.78571 0,21.78572 -21.78572,0 -21.78571,0 0,-21.78572 z"
       id="path3798"
       inkscape:connector-curvature="0" />
    <path
       style="color:#000000;fill:none;stroke:none;stroke-width:2.69000006;marker:none;visibility:visible;display:inline;overflow:visible;enable-background:accumulate"
       d="m 381.28175,445.91542 0,-21.78571 21.78571,0 21.78571,0 0,21.78571 0,21.78572 -21.78571,0 -21.78571,0 0,-21.78572 z"
       id="path3800"
       inkscape:connector-curvature="0" />
    <path
       style="color:#000000;fill:none;stroke:none;stroke-width:2.69000006;marker:none;visibility:visible;display:inline;overflow:visible;enable-background:accumulate"
       d="m 426.28175,445.91542 0,-21.78571 21.78571,0 21.78571,0 0,21.78571 0,21.78572 -21.78571,0 -21.78571,0 0,-21.78572 z"
       id="path3802"
       inkscape:connector-curvature="0" />
    <path
       style="color:#000000;fill:none;stroke:none;stroke-width:2.69000006;marker:none;visibility:visible;display:inline;overflow:visible;enable-background:accumulate"
       d="m 471.99603,445.91542 0,-21.78571 21.78572,0 21.78571,0 0,21.78571 0,21.78572 -21.78571,0 -21.78572,0 0,-21.78572 z"
       id="path3804"
       inkscape:connector-curvature="0" />
    <path
       style="color:#000000;fill:none;stroke:none;stroke-width:2.69000006;marker:none;visibility:visible;display:inline;overflow:visible;enable-background:accumulate"
       d="m 471.99603,400.55828 0,-22.14286 21.78572,0 21.78571,0 0,22.14286 0,22.14286 -21.78571,0 -21.78572,0 0,-22.14286 z"
       id="path3806"
       inkscape:connector-curvature="0" />
    <path
       style="color:#000000;fill:none;stroke:none;stroke-width:2.69000006;marker:none;visibility:visible;display:inline;overflow:visible;enable-background:accumulate"
       d="m 471.99603,355.20114 0,-21.78572 21.78572,0 21.78571,0 0,21.78572 0,21.78571 -21.78571,0 -21.78572,0 0,-21.78571 z"
       id="path3808"
       inkscape:connector-curvature="0" />
    <path
       style="color:#000000;fill:none;stroke:none;stroke-width:2.69000006;marker:none;visibility:visible;display:inline;overflow:visible;enable-background:accumulate"
       d="m 109.13889,491.27256 0,-22.14285 21.78571,0 21.78572,0 0,22.14285 0,22.14286 -21.78572,0 -21.78571,0 0,-22.14286 z"
       id="path3810"
       inkscape:connector-curvature="0" />
    <text
       xml:space="preserve"
       style="font-size:110.97540283px;font-style:normal;font-weight:normal;line-height:125%;letter-spacing:0px;word-spacing:0px;fill:#000000;fill-opacity:1;stroke:none;font-family:Sans"
       x="294.45581"
       y="409.20837"
       id="text5748"
       sodipodi:linespacing="125%"
       transform="scale(1.0128585,0.98730475)"><tspan
         sodipodi:role="line"
         id="tspan5750"
         x="294.45581"
         y="409.20837">1</tspan></text>
    <text
       xml:space="preserve"
       style="font-size:110.97540283px;font-style:normal;font-weight:normal;line-height:125%;letter-spacing:0px;word-spacing:0px;fill:#000000;fill-opacity:1;stroke:none;font-family:Sans"
       x="145.43863"
       y="557.45624"
       id="text5748-5"
       sodipodi:linespacing="125%"
       transform="scale(1.0128585,0.98730475)"><tspan
         sodipodi:role="line"
         id="tspan5750-7"
         x="145.43863"
         y="557.45624">2</tspan></text>
    <text
       xml:space="preserve"
       style="font-size:110.97540283px;font-style:normal;font-weight:normal;line-height:125%;letter-spacing:0px;word-spacing:0px;fill:#000000;fill-opacity:1;stroke:none;font-family:Sans"
       x="444.80078"
       y="556.74084"
       id="text5748-5-7"
       sodipodi:linespacing="125%"
       transform="scale(1.0128585,0.98730475)"><tspan
         sodipodi:role="line"
         id="tspan5750-7-0"
         x="444.80078"
         y="556.74084">3</tspan></text>
    <text
       xml:space="preserve"
       style="font-size:110.97540283px;font-style:normal;font-weight:normal;line-height:125%;letter-spacing:0px;word-spacing:0px;fill:#000000;fill-opacity:1;stroke:none;font-family:Sans"
       x="290.49515"
       y="712.22467"
       id="text5748-5-7-1"
       sodipodi:linespacing="125%"
       transform="scale(1.0128585,0.98730475)"><tspan
         sodipodi:role="line"
         id="tspan5750-7-0-9"
         x="290.49515"
         y="712.22467">4</tspan></text>
    <path
       style="color:#000000;fill:#666666;fill-opacity:1;fill-rule:nonzero;stroke:#000000;stroke-width:0.90960824;stroke-linecap:butt;stroke-linejoin:miter;stroke-miterlimit:4;stroke-opacity:1;stroke-dashoffset:0;marker:none;visibility:visible;display:inline;overflow:visible;enable-background:accumulate"
       d="m -142.15379,284.4042 -453.5139,0 m 453.5139,45.35139 -453.5139,0 m 453.5139,45.35139 -453.5139,0 m 453.5139,45.35139 -453.5139,0 m 453.5139,45.35139 -453.5139,0 m 453.5139,45.35139 -453.5139,0 m 453.5139,45.35139 -453.5139,0 m 453.5139,45.35139 -453.5139,0 m 453.5139,45.35139 -453.5139,0 m 453.5139,45.35139 -453.5139,0 m 453.5139,45.35139 -453.5139,0 m 453.5139,-453.5139 0,453.5139 m -45.35139,-453.5139 0,453.5139 m -45.35139,-453.5139 0,453.5139 m -45.35139,-453.5139 0,453.5139 m -45.35139,-453.5139 0,453.5139 m -45.35139,-453.5139 0,453.5139 m -45.35139,-453.5139 0,453.5139 m -45.35139,-453.5139 0,453.5139 m -45.35139,-453.5139 0,453.5139 m -45.35139,-453.5139 0,453.5139 m -45.35139,-453.5139 0,453.5139"
       id="rect3769-9"
       inkscape:path-effect="#path-effect3774-0"
       inkscape:original-d="m -187.50518,284.4042 45.35139,0 0,45.35139 -45.35139,0 z"
       inkscape:connector-curvature="0" />
    <path
       style="color:#000000;fill:#ffffff;fill-opacity:1;fill-rule:nonzero;stroke:none;stroke-width:1.92142856;marker:none;visibility:visible;display:inline;overflow:visible;enable-background:accumulate"
       d="m -594.61899,443.13291 0,-21.78571 21.78571,0 21.78572,0 0,21.78571 0,21.78572 -21.78572,0 -21.78571,0 0,-21.78572 z"
       id="path3776"
       inkscape:connector-curvature="0" />
    <path
       style="color:#000000;fill:#ffffff;fill-opacity:1;fill-rule:nonzero;stroke:none;stroke-width:2.69000006;marker:none;visibility:visible;display:inline;overflow:visible;enable-background:accumulate"
       d="m -594.61899,443.13291 0,-21.78571 21.78571,0 21.78572,0 0,21.78571 0,21.78572 -21.78572,0 -21.78571,0 0,-21.78572 z"
       id="path3778"
       inkscape:connector-curvature="0" />
    <path
       style="color:#000000;fill:#ffffff;fill-opacity:1;fill-rule:nonzero;stroke:none;stroke-width:2.69000006;marker:none;visibility:visible;display:inline;overflow:visible;enable-background:accumulate"
       d="m -594.61899,443.13291 0,-21.78571 21.78571,0 21.78572,0 0,21.78571 0,21.78572 -21.78572,0 -21.78571,0 0,-21.78572 z"
       id="path3780"
       inkscape:connector-curvature="0" />
    <path
       style="color:#000000;fill:#ffffff;fill-opacity:1;fill-rule:nonzero;stroke:none;stroke-width:2.69000006;marker:none;visibility:visible;display:inline;overflow:visible;enable-background:accumulate"
       d="m -594.61899,443.13291 0,-21.78571 21.78571,0 21.78572,0 0,21.78571 0,21.78572 -21.78572,0 -21.78571,0 0,-21.78572 z"
       id="path3782"
       inkscape:connector-curvature="0" />
    <path
       style="color:#000000;fill:#ffffff;fill-opacity:1;fill-rule:nonzero;stroke:none;stroke-width:2.69000006;marker:none;visibility:visible;display:inline;overflow:visible;enable-background:accumulate"
       d="m -594.61899,443.13291 0,-21.78571 21.78571,0 21.78572,0 0,21.78571 0,21.78572 -21.78572,0 -21.78571,0 0,-21.78572 z"
       id="path3784"
       inkscape:connector-curvature="0" />
    <path
       style="color:#000000;fill:none;stroke:none;stroke-width:2.69000006;marker:none;visibility:visible;display:inline;overflow:visible;enable-background:accumulate"
       d="m -594.61899,443.13291 0,-21.78571 21.78571,0 21.78572,0 0,21.78571 0,21.78572 -21.78572,0 -21.78571,0 0,-21.78572 z"
       id="path3786-9"
       inkscape:connector-curvature="0" />
    <path
       style="color:#000000;fill:none;stroke:none;stroke-width:2.69000006;marker:none;visibility:visible;display:inline;overflow:visible;enable-background:accumulate"
       d="m -549.61899,443.13291 0,-21.78571 21.78571,0 21.78572,0 0,21.78571 0,21.78572 -21.78572,0 -21.78571,0 0,-21.78572 z"
       id="path3788-7"
       inkscape:connector-curvature="0" />
    <path
       style="color:#000000;fill:#ff0000;fill-opacity:1;fill-rule:nonzero;stroke:none;stroke-width:2.69000006;marker:none;visibility:visible;display:inline;overflow:visible;enable-background:accumulate"
       d="m -460.01567,443.13291 c -3.1e-4,-12.17857 0.0971,-17.26113 0.21643,-11.29458 0.11934,5.96656 0.11958,15.93084 5.5e-4,22.14286 -0.11904,6.21202 -0.21668,1.33029 -0.21698,-10.84828 z"
       id="path3790"
       inkscape:connector-curvature="0" />
    <path
       style="color:#000000;fill:none;stroke:none;stroke-width:2.69000006;marker:none;visibility:visible;display:inline;overflow:visible;enable-background:accumulate"
       d="m -503.90471,443.13291 0,-21.78571 21.78572,0 21.78571,0 0,21.78571 0,21.78572 -21.78571,0 -21.78572,0 0,-21.78572 z"
       id="path3792-2"
       inkscape:connector-curvature="0" />
    <path
       style="color:#000000;fill:none;stroke:none;stroke-width:2.69000006;marker:none;visibility:visible;display:inline;overflow:visible;enable-background:accumulate"
       d="m -458.90471,443.13291 0,-21.78571 21.78572,0 21.78571,0 0,21.78571 0,21.78572 -21.78571,0 -21.78572,0 0,-21.78572 z"
       id="path3794-5"
       inkscape:connector-curvature="0" />
    <path
       style="color:#000000;fill:none;stroke:none;stroke-width:2.69000006;marker:none;visibility:visible;display:inline;overflow:visible;enable-background:accumulate"
       d="m -413.19042,443.13291 0,-21.78571 21.78571,0 21.78572,0 0,21.78571 0,21.78572 -21.78572,0 -21.78571,0 0,-21.78572 z"
       id="path3796-6"
       inkscape:connector-curvature="0" />
    <path
       style="color:#000000;fill:none;stroke:none;stroke-width:2.69000006;marker:none;visibility:visible;display:inline;overflow:visible;enable-background:accumulate"
       d="m -368.19042,443.13291 0,-21.78571 21.78571,0 21.78572,0 0,21.78571 0,21.78572 -21.78572,0 -21.78571,0 0,-21.78572 z"
       id="path3798-3"
       inkscape:connector-curvature="0" />
    <path
       style="color:#000000;fill:none;stroke:none;stroke-width:2.69000006;marker:none;visibility:visible;display:inline;overflow:visible;enable-background:accumulate"
       d="m -322.47613,443.13291 0,-21.78571 21.78571,0 21.78571,0 0,21.78571 0,21.78572 -21.78571,0 -21.78571,0 0,-21.78572 z"
       id="path3800-2"
       inkscape:connector-curvature="0" />
    <path
       style="color:#000000;fill:none;stroke:none;stroke-width:2.69000006;marker:none;visibility:visible;display:inline;overflow:visible;enable-background:accumulate"
       d="m -277.47613,443.13291 0,-21.78571 21.78571,0 21.78571,0 0,21.78571 0,21.78572 -21.78571,0 -21.78571,0 0,-21.78572 z"
       id="path3802-2"
       inkscape:connector-curvature="0" />
    <path
       style="color:#000000;fill:none;stroke:none;stroke-width:2.69000006;marker:none;visibility:visible;display:inline;overflow:visible;enable-background:accumulate"
       d="m -231.76189,443.13291 0,-21.78571 21.78581,0 21.7857,0 0,21.78571 0,21.78572 -21.7857,0 -21.78581,0 0,-21.78572 z"
       id="path3804-4"
       inkscape:connector-curvature="0" />
    <path
       style="color:#000000;fill:none;stroke:none;stroke-width:2.69000006;marker:none;visibility:visible;display:inline;overflow:visible;enable-background:accumulate"
       d="m -231.76189,397.77577 0,-22.14286 21.78581,0 21.7857,0 0,22.14286 0,22.14286 -21.7857,0 -21.78581,0 0,-22.14286 z"
       id="path3806-2"
       inkscape:connector-curvature="0" />
    <path
       style="color:#000000;fill:none;stroke:none;stroke-width:2.69000006;marker:none;visibility:visible;display:inline;overflow:visible;enable-background:accumulate"
       d="m -231.76189,352.41863 0,-21.78572 21.78581,0 21.7857,0 0,21.78572 0,21.78571 -21.7857,0 -21.78581,0 0,-21.78571 z"
       id="path3808-8"
       inkscape:connector-curvature="0" />
    <path
       style="color:#000000;fill:none;stroke:none;stroke-width:2.69000006;marker:none;visibility:visible;display:inline;overflow:visible;enable-background:accumulate"
       d="m -594.61899,488.49005 0,-22.14285 21.78571,0 21.78572,0 0,22.14285 0,22.14286 -21.78572,0 -21.78571,0 0,-22.14286 z"
       id="path3810-1"
       inkscape:connector-curvature="0" />
    <path
       style="color:#000000;fill:#808080;fill-opacity:1;fill-rule:nonzero;stroke:none;stroke-width:0;marker:none;visibility:visible;display:inline;overflow:visible;enable-background:accumulate"
       d="m -322.75079,306.78864 0,-22.15318 21.96428,0.1889 21.96429,0.18889 0.18889,21.96429 0.1889,21.96428 -22.15318,0 -22.15318,0 0,-22.15318 z"
       id="path4397"
       inkscape:connector-curvature="0" />
    <path
       style="color:#000000;fill:#808080;fill-opacity:1;fill-rule:nonzero;stroke:none;stroke-width:0;marker:none;visibility:visible;display:inline;overflow:visible;enable-background:accumulate"
       d="m -322.75079,352.51325 0,-22.14286 22.14285,0 22.14286,0 0,22.14286 0,22.14286 -22.14286,0 -22.14285,0 0,-22.14286 z"
       id="path4399"
       inkscape:connector-curvature="0" />
    <path
       style="color:#000000;fill:#808080;fill-opacity:1;fill-rule:nonzero;stroke:none;stroke-width:0;marker:none;visibility:visible;display:inline;overflow:visible;enable-background:accumulate"
       d="m -277.75079,352.51325 0,-22.14286 22.14285,0 22.14285,0 0,22.14286 0,22.14286 -22.14285,0 -22.14285,0 0,-22.14286 z"
       id="path4401"
       inkscape:connector-curvature="0" />
    <path
       style="color:#000000;fill:#808080;fill-opacity:1;fill-rule:nonzero;stroke:none;stroke-width:0;marker:none;visibility:visible;display:inline;overflow:visible;enable-background:accumulate"
       d="m -277.75079,306.79896 0,-22.14285 22.14285,0 22.14285,0 0,22.14285 0,22.14286 -22.14285,0 -22.14285,0 0,-22.14286 z"
       id="path4403"
       inkscape:connector-curvature="0" />
    <path
       style="color:#000000;fill:#808080;fill-opacity:1;fill-rule:nonzero;stroke:none;stroke-width:0;marker:none;visibility:visible;display:inline;overflow:visible;enable-background:accumulate"
       d="m -549.89365,352.51325 0,-22.14286 22.14285,0 22.14286,0 0,22.14286 0,22.14286 -22.14286,0 -22.14285,0 0,-22.14286 z"
       id="path4405"
       inkscape:connector-curvature="0" />
    <path
       style="color:#000000;fill:#808080;fill-opacity:1;fill-rule:nonzero;stroke:none;stroke-width:0;marker:none;visibility:visible;display:inline;overflow:visible;enable-background:accumulate"
       d="m -504.17937,352.51325 0,-22.14286 22.14286,0 22.14286,0 0,22.14286 0,22.14286 -22.14286,0 -22.14286,0 0,-22.14286 z"
       id="path4407"
       inkscape:connector-curvature="0" />
    <path
       style="color:#000000;fill:#808080;fill-opacity:1;fill-rule:nonzero;stroke:none;stroke-width:0;marker:none;visibility:visible;display:inline;overflow:visible;enable-background:accumulate"
       d="m -459.17936,352.51325 0,-22.14286 22.14285,0 22.14286,0 0,22.14286 0,22.14286 -22.14286,0 -22.14285,0 0,-22.14286 z"
       id="path4409"
       inkscape:connector-curvature="0" />
    <path
       style="color:#000000;fill:#808080;fill-opacity:1;fill-rule:nonzero;stroke:none;stroke-width:0;marker:none;visibility:visible;display:inline;overflow:visible;enable-background:accumulate"
       d="m -549.89365,397.51325 0,-22.14286 22.14285,0 22.14286,0 0,22.14286 0,22.14285 -22.14286,0 -22.14285,0 0,-22.14285 z"
       id="path4411"
       inkscape:connector-curvature="0" />
    <path
       style="color:#000000;fill:#808080;fill-opacity:1;fill-rule:nonzero;stroke:none;stroke-width:0;marker:none;visibility:visible;display:inline;overflow:visible;enable-background:accumulate"
       d="m -504.17937,397.50292 0,-22.15317 21.96429,0.18889 21.96429,0.1889 0.18889,21.96428 0.1889,21.96428 -22.15318,0 -22.15319,0 0,-22.15318 z"
       id="path4413"
       inkscape:connector-curvature="0" />
    <path
       style="color:#000000;fill:#808080;fill-opacity:1;fill-rule:nonzero;stroke:none;stroke-width:0;marker:none;visibility:visible;display:inline;overflow:visible;enable-background:accumulate"
       d="m -549.89365,443.22753 0,-22.14286 22.14285,0 22.14286,0 0,22.14286 0,22.14286 -22.14286,0 -22.14285,0 0,-22.14286 z"
       id="path4415"
       inkscape:connector-curvature="0" />
    <path
       style="color:#000000;fill:#808080;fill-opacity:1;fill-rule:nonzero;stroke:none;stroke-width:0;marker:none;visibility:visible;display:inline;overflow:visible;enable-background:accumulate"
       d="m -594.89365,533.94182 0,-22.14286 22.14285,0 22.14286,0 0,22.14286 0,22.14285 -22.14286,0 -22.14285,0 0,-22.14285 z"
       id="path4419"
       inkscape:connector-curvature="0" />
    <path
       style="color:#000000;fill:#808080;fill-opacity:1;fill-rule:nonzero;stroke:none;stroke-width:0;marker:none;visibility:visible;display:inline;overflow:visible;enable-background:accumulate"
       d="m -549.89365,624.6561 0,-22.14285 22.14285,0 22.14286,0 0,22.14285 0,22.14286 -22.14286,0 -22.14285,0 0,-22.14286 z"
       id="path4421"
       inkscape:connector-curvature="0" />
    <path
       style="color:#000000;fill:#808080;fill-opacity:1;fill-rule:nonzero;stroke:none;stroke-width:0;marker:none;visibility:visible;display:inline;overflow:visible;enable-background:accumulate"
       d="m -504.17937,624.6561 0,-22.14285 22.14286,0 22.14286,0 0,22.14285 0,22.14286 -22.14286,0 -22.14286,0 0,-22.14286 z"
       id="path4423"
       inkscape:connector-curvature="0" />
    <path
       style="color:#000000;fill:#808080;fill-opacity:1;fill-rule:nonzero;stroke:none;stroke-width:0;marker:none;visibility:visible;display:inline;overflow:visible;enable-background:accumulate"
       d="m -549.89365,669.6561 0,-22.14285 22.14285,0 22.14286,0 0,22.14285 0,22.14286 -22.14286,0 -22.14285,0 0,-22.14286 z"
       id="path4425"
       inkscape:connector-curvature="0" />
    <path
       style="color:#000000;fill:#808080;fill-opacity:1;fill-rule:nonzero;stroke:none;stroke-width:0;marker:none;visibility:visible;display:inline;overflow:visible;enable-background:accumulate"
       d="m -504.17937,669.64578 0,-22.15318 21.96429,0.18889 21.96429,0.1889 0.18889,21.96428 0.1889,21.96429 -22.15318,0 -22.15319,0 0,-22.15318 z"
       id="path4433"
       inkscape:connector-curvature="0" />
    <path
       style="color:#000000;fill:#808080;fill-opacity:1;fill-rule:nonzero;stroke:none;stroke-width:0;marker:none;visibility:visible;display:inline;overflow:visible;enable-background:accumulate"
       d="m -322.75079,715.37039 0,-22.14286 22.14285,0 22.14286,0 0,22.14286 0,22.14286 -22.14286,0 -22.14285,0 0,-22.14286 z"
       id="path4435"
       inkscape:connector-curvature="0" />
    <path
       style="color:#000000;fill:#808080;fill-opacity:1;fill-rule:nonzero;stroke:none;stroke-width:0;marker:none;visibility:visible;display:inline;overflow:visible;enable-background:accumulate"
       d="m -595.91994,737.33467 c -0.18645,-0.49107 -0.25672,-102.625 -0.15616,-226.96428 l 0.18285,-226.07143 226.96429,-0.17968 226.96431,-0.17968 0,227.14396 0,227.14397 -226.80816,0 c -180.78952,0 -226.87692,-0.18116 -227.14713,-0.89286 z m 45.38383,-21.96428 0,-22.14286 -22.5,0 -22.5,0 0,22.14286 0,22.14286 22.5,0 22.5,0 0,-22.14286 z m 45,0 0,-22.14286 -22.14286,0 -22.14285,0 0,22.14286 0,22.14286 22.14285,0 22.14286,0 0,-22.14286 z m 45.71429,0 0,-22.14286 -22.5,0 -22.5,0 0,22.14286 0,22.14286 22.5,0 22.5,0 0,-22.14286 z m 45,0 0,-22.14286 -22.14286,0 -22.14285,0 0,22.14286 0,22.14286 22.14285,0 22.14286,0 0,-22.14286 z m 45.71429,0 0,-22.14286 -22.5,0 -22.5,0 0,22.14286 0,22.14286 22.5,0 22.5,0 0,-22.14286 z m 45,0 0,-22.14286 -22.14286,0 -22.14286,0 0,22.14286 0,22.14286 22.14286,0 22.14286,0 0,-22.14286 z m 45.71428,0 0,-22.14286 -22.5,0 -22.5,0 0,22.14286 0,22.14286 22.5,0 22.5,0 0,-22.14286 z m 44.99999,0 0,-22.14286 -22.14285,0 -22.14285,0 0,22.14286 0,22.14286 22.14285,0 22.14285,0 0,-22.14286 z m 45.71431,0 0,-22.14286 -22.5,0 -22.50001,0 0,22.14286 0,22.14286 22.50001,0 22.5,0 0,-22.14286 z m 45,0 0,-22.14286 -22.1429,0 -22.1428,0 0,22.14286 0,22.14286 22.1428,0 22.1429,0 0,-22.14286 z m -408.02554,-45.54591 0.18876,-22.33161 -22.33162,0.18875 -22.33162,0.18877 -0.18946,21.42076 c -0.1042,11.78142 -0.0322,21.83072 0.16013,22.33178 0.2751,0.71692 5.03304,0.87077 22.33232,0.72209 l 21.98273,-0.18892 0.18876,-22.33162 z m 45.16838,0.18877 0,-22.5 -22.14286,0 -22.14285,0 0,22.5 0,22.5 22.14285,0 22.14286,0 0,-22.5 z m 45.54591,-0.18877 0.18876,-22.33161 -22.33162,0.18875 -22.33162,0.18877 -0.18946,21.42076 c -0.10421,11.78142 -0.0321,21.83072 0.16012,22.33178 0.27511,0.71692 5.03305,0.87077 22.33233,0.72209 l 21.98273,-0.18892 0.18876,-22.33162 z m 45.16838,0.18877 0,-22.5 -22.14286,0 -22.14285,0 0,22.5 0,22.5 22.14285,0 22.14286,0 0,-22.5 z m 45.54591,-0.18877 0.18875,-22.33161 -22.33161,0.18875 -22.33162,0.18877 -0.18947,21.42076 c -0.1042,11.78142 -0.0321,21.83072 0.16013,22.33178 0.27511,0.71692 5.03305,0.87077 22.33232,0.72209 l 21.98273,-0.18892 0.18877,-22.33162 z m 45.16838,0.18877 0,-22.5 -22.14286,0 -22.14286,0 0,22.5 0,22.5 22.14286,0 22.14286,0 0,-22.5 z m 45.5459,-0.18877 0.18876,-22.33161 -22.33161,0.18875 -22.33163,0.18877 -0.18946,21.42076 c -0.10421,11.78142 -0.0321,21.83072 0.16013,22.33178 0.27511,0.71692 5.03304,0.87077 22.33232,0.72209 l 21.98273,-0.18892 0.18876,-22.33162 z m 45.16837,0.18877 0,-22.5 -22.14285,0 -22.14285,0 0,22.5 0,22.5 22.14285,0 22.14285,0 0,-22.5 z m 45.54591,-0.18877 0.1888,-22.33161 -22.3316,0.18875 -22.33171,0.18877 -0.1894,21.42076 c -0.1042,11.78142 -0.032,21.83072 0.1601,22.33178 0.2751,0.71692 5.03301,0.87077 22.33231,0.72209 l 21.9827,-0.18892 0.1888,-22.33162 z m 45.1684,0.18877 0,-22.5 -22.1429,0 -22.1428,0 0,22.5 0,22.5 22.1428,0 22.1429,0 0,-22.5 z m -407.85716,-45.35715 0,-22.14285 -22.5,0 -22.5,0 0,22.14285 0,22.14286 22.5,0 22.5,0 0,-22.14286 z m 45,0 0,-22.14285 -22.14286,0 -22.14285,0 0,22.14285 0,22.14286 22.14285,0 22.14286,0 0,-22.14286 z m 45.71429,0 0,-22.14285 -22.5,0 -22.5,0 0,22.14285 0,22.14286 22.5,0 22.5,0 0,-22.14286 z m 45,0 0,-22.14285 -22.14286,0 -22.14285,0 0,22.14285 0,22.14286 22.14285,0 22.14286,0 0,-22.14286 z m 45.71429,0 0,-22.14285 -22.5,0 -22.5,0 0,22.14285 0,22.14286 22.5,0 22.5,0 0,-22.14286 z m 45,0 0,-22.14285 -22.14286,0 -22.14286,0 0,22.14285 0,22.14286 22.14286,0 22.14286,0 0,-22.14286 z m 45.71428,0 0,-22.14285 -22.5,0 -22.5,0 0,22.14285 0,22.14286 22.5,0 22.5,0 0,-22.14286 z m 44.99999,0 0,-22.14285 -22.14285,0 -22.14285,0 0,22.14285 0,22.14286 22.14285,0 22.14285,0 0,-22.14286 z m 45.71431,0 0,-22.14285 -22.5,0 -22.50001,0 0,22.14285 0,22.14286 22.50001,0 22.5,0 0,-22.14286 z m 45,0 0,-22.14285 -22.1429,0 -22.1428,0 0,22.14285 0,22.14286 22.1428,0 22.1429,0 0,-22.14286 z m -408.02554,-45.5459 0.18876,-22.33162 -22.33162,0.18876 -22.33162,0.18876 -0.18946,21.42077 c -0.1042,11.78142 -0.0322,21.83072 0.16013,22.33178 0.2751,0.71692 5.03304,0.87076 22.33232,0.72209 l 21.98273,-0.18892 0.18876,-22.33162 z m 45.16838,0.18876 0,-22.5 -22.14286,0 -22.14285,0 0,22.5 0,22.5 22.14285,0 22.14286,0 0,-22.5 z m 45.54591,-0.18876 0.18876,-22.33162 -22.33162,0.18876 -22.33162,0.18876 -0.18946,21.42077 c -0.10421,11.78142 -0.0321,21.83072 0.16012,22.33178 0.27511,0.71692 5.03305,0.87076 22.33233,0.72209 l 21.98273,-0.18892 0.18876,-22.33162 z m 45.16838,0.18876 0,-22.5 -22.14286,0 -22.14285,0 0,22.5 0,22.5 22.14285,0 22.14286,0 0,-22.5 z m 45.54591,-0.18876 0.18875,-22.33162 -22.33161,0.18876 -22.33162,0.18876 -0.18947,21.42077 c -0.1042,11.78142 -0.0321,21.83072 0.16013,22.33178 0.27511,0.71692 5.03305,0.87076 22.33232,0.72209 l 21.98273,-0.18892 0.18877,-22.33162 z m 45.16838,0.18876 0,-22.5 -22.14286,0 -22.14286,0 0,22.5 0,22.5 22.14286,0 22.14286,0 0,-22.5 z m 45.5459,-0.18876 0.18876,-22.33162 -22.33161,0.18876 -22.33163,0.18876 -0.18946,21.42077 c -0.10421,11.78142 -0.0321,21.83072 0.16013,22.33178 0.27511,0.71692 5.03304,0.87076 22.33232,0.72209 l 21.98273,-0.18892 0.18876,-22.33162 z m 45.16837,0.18876 0,-22.5 -22.14285,0 -22.14285,0 0,22.5 0,22.5 22.14285,0 22.14285,0 0,-22.5 z m 45.54591,-0.18876 0.1888,-22.33162 -22.3316,0.18876 -22.33171,0.18876 -0.1894,21.42077 c -0.1042,11.78142 -0.032,21.83072 0.1601,22.33178 0.2751,0.71692 5.03301,0.87076 22.33231,0.72209 l 21.9827,-0.18892 0.1888,-22.33162 z m 45.1684,0.18876 0,-22.5 -22.1429,0 -22.1428,0 0,22.5 0,22.5 22.1428,0 22.1429,0 0,-22.5 z m -407.85716,-45.35714 0,-22.14286 -22.5,0 -22.5,0 0,22.14286 0,22.14285 22.5,0 22.5,0 0,-22.14285 z m 45,0 0,-22.14286 -22.14285,0 -22.14286,0 0,22.14286 0,22.14285 22.14286,0 22.14285,0 0,-22.14285 z m 45.71429,0 0,-22.14286 -22.5,0 -22.5,0 0,22.14286 0,22.14285 22.5,0 22.5,0 0,-22.14285 z m 45,0 0,-22.14286 -22.14286,0 -22.14285,0 0,22.14286 0,22.14285 22.14285,0 22.14286,0 0,-22.14285 z m 45.71429,0 0,-22.14286 -22.5,0 -22.5,0 0,22.14286 0,22.14285 22.5,0 22.5,0 0,-22.14285 z m 45,0 0,-22.14286 -22.14286,0 -22.14286,0 0,22.14286 0,22.14285 22.14286,0 22.14286,0 0,-22.14285 z m 45.71428,0 0,-22.14286 -22.5,0 -22.5,0 0,22.14286 0,22.14285 22.5,0 22.5,0 0,-22.14285 z m 44.99999,0 0,-22.14286 -22.14285,0 -22.14285,0 0,22.14286 0,22.14285 22.14285,0 22.14285,0 0,-22.14285 z m 45.71431,0 0,-22.14286 -22.5,0 -22.50001,0 0,22.14286 0,22.14285 22.50001,0 22.5,0 0,-22.14285 z m 45,0 0,-22.14286 -22.1429,0 -22.1428,0 0,22.14286 0,22.14285 22.1428,0 22.1429,0 0,-22.14285 z m -408.02554,-45.54591 0.18876,-22.33161 -22.33162,0.18875 -22.33162,0.18877 -0.18946,21.42076 c -0.1042,11.78142 -0.0322,21.83072 0.16013,22.33178 0.2751,0.71692 5.03304,0.87076 22.33232,0.72209 l 21.98273,-0.18892 0.18876,-22.33162 z m 45.16838,0.18876 0,-22.5 -22.14286,0 -22.14285,0 0,22.5 0,22.5 22.14285,0 22.14286,0 0,-22.5 z m 45.54591,-0.18876 0.18876,-22.33161 -22.33162,0.18875 -22.33162,0.18877 -0.18946,21.42076 c -0.10421,11.78142 -0.0321,21.83072 0.16012,22.33178 0.27511,0.71692 5.03305,0.87076 22.33233,0.72209 l 21.98273,-0.18892 0.18876,-22.33162 z m 45.16838,0.18876 0,-22.5 -22.14286,0 -22.14285,0 0,22.5 0,22.5 22.14285,0 22.14286,0 0,-22.5 z m 45.54591,-0.18876 0.18875,-22.33161 -22.33161,0.18875 -22.33162,0.18877 -0.18947,21.42076 c -0.1042,11.78142 -0.0321,21.83072 0.16013,22.33178 0.27511,0.71692 5.03305,0.87076 22.33232,0.72209 l 21.98273,-0.18892 0.18877,-22.33162 z m 45.16838,0.18876 0,-22.5 -22.14286,0 -22.14286,0 0,22.5 0,22.5 22.14286,0 22.14286,0 0,-22.5 z m 45.5459,-0.18876 0.18876,-22.33161 -22.33161,0.18875 -22.33163,0.18877 -0.18946,21.42076 c -0.10421,11.78142 -0.0321,21.83072 0.16013,22.33178 0.27511,0.71692 5.03304,0.87076 22.33232,0.72209 l 21.98273,-0.18892 0.18876,-22.33162 z m 45.16837,0.18876 0,-22.5 -22.14285,0 -22.14285,0 0,22.5 0,22.5 22.14285,0 22.14285,0 0,-22.5 z m 45.54591,-0.18876 0.1888,-22.33161 -22.3316,0.18875 -22.33171,0.18877 -0.1894,21.42076 c -0.1042,11.78142 -0.032,21.83072 0.1601,22.33178 0.2751,0.71692 5.03301,0.87076 22.33231,0.72209 l 21.9827,-0.18892 0.1888,-22.33162 z m 45.1684,0.18876 0,-22.5 -22.1429,0 -22.1428,0 0,22.5 0,22.5 22.1428,0 22.1429,0 0,-22.5 z m -407.85716,-45.35714 0,-22.14286 -22.5,0 -22.5,0 0,22.14286 0,22.14286 22.5,0 22.5,0 0,-22.14286 z m 45,0 0,-22.14286 -22.14285,0 -22.14286,0 0,22.14286 0,22.14286 22.14286,0 22.14285,0 0,-22.14286 z m 45.71429,0 0,-22.14286 -22.5,0 -22.5,0 0,22.14286 0,22.14286 22.5,0 22.5,0 0,-22.14286 z m 45,0 0,-22.14286 -22.14286,0 -22.14285,0 0,22.14286 0,22.14286 22.14285,0 22.14286,0 0,-22.14286 z m 45.71429,0 0,-22.14286 -22.5,0 -22.5,0 0,22.14286 0,22.14286 22.5,0 22.5,0 0,-22.14286 z m 45,0 0,-22.14286 -22.14286,0 -22.14286,0 0,22.14286 0,22.14286 22.14286,0 22.14286,0 0,-22.14286 z m 45.71428,0 0,-22.14286 -22.5,0 -22.5,0 0,22.14286 0,22.14286 22.5,0 22.5,0 0,-22.14286 z m 44.99999,0 0,-22.14286 -22.14285,0 -22.14285,0 0,22.14286 0,22.14286 22.14285,0 22.14285,0 0,-22.14286 z m 45.71431,0 0,-22.14286 -22.5,0 -22.50001,0 0,22.14286 0,22.14286 22.50001,0 22.5,0 0,-22.14286 z m 45,0 0,-22.14286 -22.1429,0 -22.1428,0 0,22.14286 0,22.14286 22.1428,0 22.1429,0 0,-22.14286 z m -408.02554,-45.54591 0.18876,-22.33161 -22.33162,0.18876 -22.33162,0.18877 -0.18946,21.42076 c -0.1042,11.78142 -0.0322,21.83072 0.16013,22.33177 0.2751,0.71693 5.03304,0.87077 22.33232,0.7221 l 21.98273,-0.18892 0.18876,-22.33163 z m 45.16838,0.18877 0,-22.5 -22.14286,0 -22.14285,0 0,22.5 0,22.5 22.14285,0 22.14286,0 0,-22.5 z m 45.54591,-0.18877 0.18876,-22.33161 -22.33162,0.18876 -22.33162,0.18877 -0.18946,21.42076 c -0.10421,11.78142 -0.0321,21.83072 0.16012,22.33177 0.27511,0.71693 5.03305,0.87077 22.33233,0.7221 l 21.98273,-0.18892 0.18876,-22.33163 z m 45.16838,0.18877 0,-22.5 -22.14286,0 -22.14285,0 0,22.5 0,22.5 22.14285,0 22.14286,0 0,-22.5 z m 45.54591,-0.18877 0.18875,-22.33161 -22.33161,0.18876 -22.33162,0.18877 -0.18947,21.42076 c -0.1042,11.78142 -0.0321,21.83072 0.16013,22.33177 0.27511,0.71693 5.03305,0.87077 22.33232,0.7221 l 21.98273,-0.18892 0.18877,-22.33163 z m 45.16838,0.18877 0,-22.5 -22.14286,0 -22.14286,0 0,22.5 0,22.5 22.14286,0 22.14286,0 0,-22.5 z m 45.5459,-0.18877 0.18876,-22.33161 -22.33161,0.18876 -22.33163,0.18877 -0.18946,21.42076 c -0.10421,11.78142 -0.0321,21.83072 0.16013,22.33177 0.27511,0.71693 5.03304,0.87077 22.33232,0.7221 l 21.98273,-0.18892 0.18876,-22.33163 z m 45.16837,0.18877 0,-22.5 -22.14285,0 -22.14285,0 0,22.5 0,22.5 22.14285,0 22.14285,0 0,-22.5 z m 45.54591,-0.18877 0.1888,-22.33161 -22.3316,0.18876 -22.33171,0.18877 -0.1894,21.42076 c -0.1042,11.78142 -0.032,21.83072 0.1601,22.33177 0.2751,0.71693 5.03301,0.87077 22.33231,0.7221 l 21.9827,-0.18892 0.1888,-22.33163 z m 45.1684,0.18877 0,-22.5 -22.1429,0 -22.1428,0 0,22.5 0,22.5 22.1428,0 22.1429,0 0,-22.5 z m -407.85716,-45.35714 0,-22.14286 -22.5,0 -22.5,0 0,22.14286 0,22.14286 22.5,0 22.5,0 0,-22.14286 z m 45,0 0,-22.14286 -22.14286,0 -22.14285,0 0,22.14286 0,22.14286 22.14285,0 22.14286,0 0,-22.14286 z m 45.71429,0 0,-22.14286 -22.5,0 -22.5,0 0,22.14286 0,22.14286 22.5,0 22.5,0 0,-22.14286 z m 45,0 0,-22.14286 -22.14286,0 -22.14285,0 0,22.14286 0,22.14286 22.14285,0 22.14286,0 0,-22.14286 z m 45.71429,0 0,-22.14286 -22.5,0 -22.5,0 0,22.14286 0,22.14286 22.5,0 22.5,0 0,-22.14286 z m 45,0 0,-22.14286 -22.14286,0 -22.14286,0 0,22.14286 0,22.14286 22.14286,0 22.14286,0 0,-22.14286 z m 45.71428,0 0,-22.14286 -22.5,0 -22.5,0 0,22.14286 0,22.14286 22.5,0 22.5,0 0,-22.14286 z m 44.99999,0 0,-22.14286 -22.14285,0 -22.14285,0 0,22.14286 0,22.14286 22.14285,0 22.14285,0 0,-22.14286 z m 45.71431,0 0,-22.14286 -22.5,0 -22.50001,0 0,22.14286 0,22.14286 22.50001,0 22.5,0 0,-22.14286 z m 45,0 0,-22.14286 -22.1429,0 -22.1428,0 0,22.14286 0,22.14286 22.1428,0 22.1429,0 0,-22.14286 z m -408.02554,-45.54591 0.18876,-22.33161 -22.33162,0.18876 -22.33162,0.18876 -0.18946,21.42076 c -0.1042,11.78143 -0.0322,21.83073 0.16013,22.33178 0.2751,0.71692 5.03304,0.87077 22.33232,0.7221 l 21.98273,-0.18893 0.18876,-22.33162 z m 45.16838,0.18877 0,-22.5 -22.14286,0 -22.14285,0 0,22.5 0,22.5 22.14285,0 22.14286,0 0,-22.5 z m 45.54591,-0.18877 0.18876,-22.33161 -22.33162,0.18876 -22.33162,0.18876 -0.18946,21.42076 c -0.10421,11.78143 -0.0321,21.83073 0.16012,22.33178 0.27511,0.71692 5.03305,0.87077 22.33233,0.7221 l 21.98273,-0.18893 0.18876,-22.33162 z m 45.16838,0.18877 0,-22.5 -22.14286,0 -22.14285,0 0,22.5 0,22.5 22.14285,0 22.14286,0 0,-22.5 z m 45.54591,-0.18877 0.18875,-22.33161 -22.33161,0.18876 -22.33162,0.18876 -0.18947,21.42076 c -0.1042,11.78143 -0.0321,21.83073 0.16013,22.33178 0.27511,0.71692 5.03305,0.87077 22.33232,0.7221 l 21.98273,-0.18893 0.18877,-22.33162 z m 45.16838,0.18877 0,-22.5 -22.14286,0 -22.14286,0 0,22.5 0,22.5 22.14286,0 22.14286,0 0,-22.5 z m 45.5459,-0.18877 0.18876,-22.33161 -22.33161,0.18876 -22.33163,0.18876 -0.18946,21.42076 c -0.10421,11.78143 -0.0321,21.83073 0.16013,22.33178 0.27511,0.71692 5.03304,0.87077 22.33232,0.7221 l 21.98273,-0.18893 0.18876,-22.33162 z m 45.16837,0.18877 0,-22.5 -22.14285,0 -22.14285,0 0,22.5 0,22.5 22.14285,0 22.14285,0 0,-22.5 z m 45.54591,-0.18877 0.1888,-22.33161 -22.3316,0.18876 -22.33171,0.18876 -0.1894,21.42076 c -0.1042,11.78143 -0.032,21.83073 0.1601,22.33178 0.2751,0.71692 5.03301,0.87077 22.33231,0.7221 l 21.9827,-0.18893 0.1888,-22.33162 z m 45.1684,0.18877 0,-22.5 -22.1429,0 -22.1428,0 0,22.5 0,22.5 22.1428,0 22.1429,0 0,-22.5 z"
       id="path4439"
       inkscape:connector-curvature="0" />
    <path
       style="color:#000000;fill:#808080;fill-opacity:1;fill-rule:nonzero;stroke:none;stroke-width:0;marker:none;visibility:visible;display:inline;overflow:visible;enable-background:accumulate"
       d="m -277.75079,488.22753 0,-22.14286 22.14285,0 22.14285,0 0,22.14286 0,22.14286 -22.14285,0 -22.14285,0 0,-22.14286 z"
       id="path4441"
       inkscape:connector-curvature="0" />
    <path
       style="color:#000000;fill:#808080;fill-opacity:1;fill-rule:nonzero;stroke:none;stroke-width:0;marker:none;visibility:visible;display:inline;overflow:visible;enable-background:accumulate"
       d="m -232.03649,488.21721 0,-22.15318 21.9643,0.18889 21.96421,0.1889 0.2228,14.64285 c 0.1225,8.05358 0.011,17.9375 -0.2473,21.96429 l -0.4701,7.32143 -21.7169,0 -21.71701,0 0,-22.15318 z"
       id="path4443"
       inkscape:connector-curvature="0" />
    <path
       style="color:#000000;fill:#808080;fill-opacity:1;fill-rule:nonzero;stroke:none;stroke-width:0;marker:none;visibility:visible;display:inline;overflow:visible;enable-background:accumulate"
       d="m -277.75079,533.94182 0,-22.14286 22.14285,0 22.14285,0 0,22.14286 0,22.14285 -22.14285,0 -22.14285,0 0,-22.14285 z"
       id="path4445"
       inkscape:connector-curvature="0" />
    <path
       style="color:#000000;fill:#808080;fill-opacity:1;fill-rule:nonzero;stroke:none;stroke-width:0;marker:none;visibility:visible;display:inline;overflow:visible;enable-background:accumulate"
       d="m -277.75079,578.94182 0,-22.14286 22.14285,0 22.14285,0 0,22.14286 0,22.14285 -22.14285,0 -22.14285,0 0,-22.14285 z"
       id="path4447"
       inkscape:connector-curvature="0" />
    <path
       style="color:#000000;fill:#808080;fill-opacity:1;fill-rule:nonzero;stroke:none;stroke-width:0;marker:none;visibility:visible;display:inline;overflow:visible;enable-background:accumulate"
       d="m -322.75079,533.94182 0,-22.14286 22.14285,0 22.14286,0 0,22.14286 0,22.14285 -22.14286,0 -22.14285,0 0,-22.14285 z"
       id="path4449"
       inkscape:connector-curvature="0" />
    <path
       style="color:#000000;fill:#808080;fill-opacity:1;fill-rule:nonzero;stroke:none;stroke-width:0;marker:none;visibility:visible;display:inline;overflow:visible;enable-background:accumulate"
       d="m -413.46508,488.21721 0,-22.15318 21.96429,0.18889 21.96428,0.1889 0.1889,21.96428 0.18889,21.96429 -22.15318,0 -22.15318,0 0,-22.15318 z"
       id="path4451"
       inkscape:connector-curvature="0" />
    <text
       xml:space="preserve"
       style="font-size:34.01283646px;font-style:normal;font-weight:normal;line-height:125%;letter-spacing:0px;word-spacing:0px;fill:#000000;fill-opacity:1;stroke:none;font-family:Sans"
       x="-566.77405"
       y="806.34528"
       id="text6139"
       sodipodi:linespacing="125%"
       transform="scale(1.0180268,0.98229241)"><tspan
         sodipodi:role="line"
         id="tspan6141"
         x="-566.77405"
         y="806.34528">Рис. 1: Поля пшеницы</tspan></text>
    <text
       xml:space="preserve"
       style="font-size:33.84121704px;font-style:normal;font-weight:normal;line-height:125%;letter-spacing:0px;word-spacing:0px;fill:#000000;fill-opacity:1;stroke:none;font-family:Sans"
       x="-12.927308"
       y="816.01947"
       id="text6143"
       sodipodi:linespacing="125%"
       transform="scale(1.0282962,0.97248244)"><tspan
         sodipodi:role="line"
         id="tspan6145"
         x="-12.927308"
         y="816.01947">Рис.2: Поля, касающиеся по диагонали</tspan></text>
  </g>
</svg>
