<?xml version="1.0" encoding="UTF-8" standalone="no"?>
<!-- Created with Inkscape (http://www.inkscape.org/) -->

<svg
   xmlns:dc="http://purl.org/dc/elements/1.1/"
   xmlns:cc="http://creativecommons.org/ns#"
   xmlns:rdf="http://www.w3.org/1999/02/22-rdf-syntax-ns#"
   xmlns:svg="http://www.w3.org/2000/svg"
   xmlns="http://www.w3.org/2000/svg"
   xmlns:sodipodi="http://sodipodi.sourceforge.net/DTD/sodipodi-0.dtd"
   xmlns:inkscape="http://www.inkscape.org/namespaces/inkscape"
   width="984.03784"
   height="225.82471"
   id="svg2"
   version="1.1"
   inkscape:version="0.48.4 r9939"
   sodipodi:docname="drawing.svg">
  <defs
     id="defs4">
    <marker
       inkscape:stockid="Arrow1Lstart"
       orient="auto"
       refY="0"
       refX="0"
       id="Arrow1Lstart"
       style="overflow:visible">
      <path
         id="path4227"
         d="M 0,0 5,-5 -12.5,0 5,5 0,0 z"
         style="fill-rule:evenodd;stroke:#000000;stroke-width:1pt"
         transform="matrix(0.8,0,0,0.8,10,0)"
         inkscape:connector-curvature="0" />
    </marker>
    <marker
       inkscape:stockid="Arrow1Lend"
       orient="auto"
       refY="0"
       refX="0"
       id="Arrow1Lend"
       style="overflow:visible">
      <path
         id="path4230"
         d="M 0,0 5,-5 -12.5,0 5,5 0,0 z"
         style="fill-rule:evenodd;stroke:#000000;stroke-width:1pt"
         transform="matrix(-0.8,0,0,-0.8,-10,0)"
         inkscape:connector-curvature="0" />
    </marker>
  </defs>
  <sodipodi:namedview
     id="base"
     pagecolor="#ffffff"
     bordercolor="#666666"
     borderopacity="1.0"
     inkscape:pageopacity="0.0"
     inkscape:pageshadow="2"
     inkscape:zoom="0.98994949"
     inkscape:cx="366.11402"
     inkscape:cy="73.61662"
     inkscape:document-units="px"
     inkscape:current-layer="layer1"
     showgrid="false"
     inkscape:window-width="1680"
     inkscape:window-height="1026"
     inkscape:window-x="0"
     inkscape:window-y="24"
     inkscape:window-maximized="1"
     fit-margin-top="0"
     fit-margin-left="0"
     fit-margin-right="0"
     fit-margin-bottom="0" />
  <metadata
     id="metadata7">
    <rdf:RDF>
      <cc:Work
         rdf:about="">
        <dc:format>image/svg+xml</dc:format>
        <dc:type
           rdf:resource="http://purl.org/dc/dcmitype/StillImage" />
        <dc:title></dc:title>
      </cc:Work>
    </rdf:RDF>
  </metadata>
  <g
     inkscape:label="Layer 1"
     inkscape:groupmode="layer"
     id="layer1"
     transform="translate(-35.27646,-520.63653)">
    <path
       sodipodi:type="arc"
       style="color:#000000;fill:#ffffff;fill-opacity:1;fill-rule:nonzero;stroke:#000000;stroke-width:1.06757438;stroke-linecap:butt;stroke-linejoin:miter;stroke-miterlimit:4;stroke-opacity:1;stroke-dasharray:3.20272321, 1.0675744;stroke-dashoffset:0;marker:none;marker-start:url(#Arrow1Lstart);visibility:visible;display:inline;overflow:visible;enable-background:accumulate"
       id="path4221"
       sodipodi:cx="384.86813"
       sodipodi:cy="100.12224"
       sodipodi:rx="58.588848"
       sodipodi:ry="54.043159"
       d="m 443.45698,100.12224 c 0,29.84721 -26.23112,54.04316 -58.58885,54.04316 -32.35772,0 -58.58884,-24.19595 -58.58884,-54.04316 0,-13.448502 5.436,-26.413847 15.2459,-36.362797"
       transform="matrix(-1.6372693,0,0,2.0375329,956.65146,405.76542)"
       sodipodi:start="0"
       sodipodi:end="3.8796436"
       sodipodi:open="true" />
    <path
       sodipodi:type="arc"
       style="color:#000000;fill:#ffffff;fill-opacity:1;fill-rule:nonzero;stroke:#000000;stroke-width:2.69000006;stroke-linecap:butt;stroke-linejoin:miter;stroke-miterlimit:4;stroke-opacity:1;stroke-dasharray:none;stroke-dashoffset:0;marker:none;visibility:visible;display:inline;overflow:visible;enable-background:accumulate"
       id="path2985"
       sodipodi:cx="252.85715"
       sodipodi:cy="339.80878"
       sodipodi:rx="155.71428"
       sodipodi:ry="147.14285"
       d="m 408.57143,339.80878 c 0,81.26475 -69.71566,147.14285 -155.71428,147.14285 -85.99862,0 -155.714282,-65.8781 -155.714282,-147.14285 0,-81.26476 69.715662,-147.14286 155.714282,-147.14286 85.99862,0 155.71428,65.8781 155.71428,147.14286 z"
       transform="matrix(0.53598425,0,0,0.56720663,-10.303502,415.26287)" />
    <path
       sodipodi:type="arc"
       style="color:#000000;fill:#ffffff;fill-opacity:1;fill-rule:nonzero;stroke:#000000;stroke-width:2.69000006;stroke-linecap:butt;stroke-linejoin:miter;stroke-miterlimit:4;stroke-opacity:1;stroke-dasharray:none;stroke-dashoffset:0;marker:none;visibility:visible;display:inline;overflow:visible;enable-background:accumulate"
       id="path3794"
       sodipodi:cx="172.98862"
       sodipodi:cy="208.20856"
       sodipodi:rx="5.3033009"
       sodipodi:ry="5.5558391"
       d="m 178.29192,208.20856 c 0,3.0684 -2.37437,5.55584 -5.3033,5.55584 -2.92894,0 -5.3033,-2.48744 -5.3033,-5.55584 0,-3.06841 2.37436,-5.55584 5.3033,-5.55584 2.92893,0 5.3033,2.48743 5.3033,5.55584 z"
       transform="translate(-0.36765614,332.68472)" />
    <path
       sodipodi:type="arc"
       style="color:#000000;fill:#ffffff;fill-opacity:1;fill-rule:nonzero;stroke:#000000;stroke-width:2.69000006;stroke-linecap:butt;stroke-linejoin:miter;stroke-miterlimit:4;stroke-opacity:1;stroke-dasharray:none;stroke-dashoffset:0;marker:none;visibility:visible;display:inline;overflow:visible;enable-background:accumulate"
       id="path3794-8"
       sodipodi:cx="172.98862"
       sodipodi:cy="208.20856"
       sodipodi:rx="5.3033009"
       sodipodi:ry="5.5558391"
       d="m 178.29192,208.20856 c 0,3.0684 -2.37437,5.55584 -5.3033,5.55584 -2.92894,0 -5.3033,-2.48744 -5.3033,-5.55584 0,-3.06841 2.37436,-5.55584 5.3033,-5.55584 2.92893,0 5.3033,2.48743 5.3033,5.55584 z"
       transform="translate(35.607883,397.16112)" />
    <path
       sodipodi:type="arc"
       style="color:#000000;fill:#ffffff;fill-opacity:1;fill-rule:nonzero;stroke:#000000;stroke-width:2.69000006;stroke-linecap:butt;stroke-linejoin:miter;stroke-miterlimit:4;stroke-opacity:1;stroke-dasharray:none;stroke-dashoffset:0;marker:none;visibility:visible;display:inline;overflow:visible;enable-background:accumulate"
       id="path3794-8-8"
       sodipodi:cx="172.98862"
       sodipodi:cy="208.20856"
       sodipodi:rx="5.3033009"
       sodipodi:ry="5.5558391"
       d="m 178.29192,208.20856 c 0,3.0684 -2.37437,5.55584 -5.3033,5.55584 -2.92894,0 -5.3033,-2.48744 -5.3033,-5.55584 0,-3.06841 2.37436,-5.55584 5.3033,-5.55584 2.92893,0 5.3033,2.48743 5.3033,5.55584 z"
       transform="translate(3.2830028,466.35658)" />
    <path
       sodipodi:type="arc"
       style="color:#000000;fill:#ffffff;fill-opacity:1;fill-rule:nonzero;stroke:#000000;stroke-width:2.69000006;stroke-linecap:butt;stroke-linejoin:miter;stroke-miterlimit:4;stroke-opacity:1;stroke-dasharray:none;stroke-dashoffset:0;marker:none;visibility:visible;display:inline;overflow:visible;enable-background:accumulate"
       id="path3794-8-4"
       sodipodi:cx="172.98862"
       sodipodi:cy="208.20856"
       sodipodi:rx="5.3033009"
       sodipodi:ry="5.5558391"
       d="m 178.29192,208.20856 c 0,3.0684 -2.37437,5.55584 -5.3033,5.55584 -2.92894,0 -5.3033,-2.48744 -5.3033,-5.55584 0,-3.06841 2.37436,-5.55584 5.3033,-5.55584 2.92893,0 5.3033,2.48743 5.3033,5.55584 z"
       transform="translate(-96.21702,466.86166)" />
    <path
       sodipodi:type="arc"
       style="color:#000000;fill:#ffffff;fill-opacity:1;fill-rule:nonzero;stroke:#000000;stroke-width:2.69000006;stroke-linecap:butt;stroke-linejoin:miter;stroke-miterlimit:4;stroke-opacity:1;stroke-dasharray:none;stroke-dashoffset:0;marker:none;visibility:visible;display:inline;overflow:visible;enable-background:accumulate"
       id="path3794-8-5"
       sodipodi:cx="172.98862"
       sodipodi:cy="208.20856"
       sodipodi:rx="5.3033009"
       sodipodi:ry="5.5558391"
       d="m 178.29192,208.20856 c 0,3.0684 -2.37437,5.55584 -5.3033,5.55584 -2.92894,0 -5.3033,-2.48744 -5.3033,-5.55584 0,-3.06841 2.37436,-5.55584 5.3033,-5.55584 2.92893,0 5.3033,2.48743 5.3033,5.55584 z"
       transform="translate(-131.06729,397.16086)" />
    <path
       sodipodi:type="arc"
       style="color:#000000;fill:#ffffff;fill-opacity:1;fill-rule:nonzero;stroke:#000000;stroke-width:2.69000006;stroke-linecap:butt;stroke-linejoin:miter;stroke-miterlimit:4;stroke-opacity:1;stroke-dasharray:none;stroke-dashoffset:0;marker:none;visibility:visible;display:inline;overflow:visible;enable-background:accumulate"
       id="path3794-8-7"
       sodipodi:cx="172.98862"
       sodipodi:cy="208.20856"
       sodipodi:rx="5.3033009"
       sodipodi:ry="5.5558391"
       d="m 178.29192,208.20856 c 0,3.0684 -2.37437,5.55584 -5.3033,5.55584 -2.92894,0 -5.3033,-2.48744 -5.3033,-5.55584 0,-3.06841 2.37436,-5.55584 5.3033,-5.55584 2.92893,0 5.3033,2.48743 5.3033,5.55584 z"
       transform="translate(-95.34429,331.97039)" />
    <text
       xml:space="preserve"
       style="font-size:21.81324005px;font-style:normal;font-weight:normal;line-height:125%;letter-spacing:0px;word-spacing:0px;fill:#000000;fill-opacity:1;stroke:none;font-family:Sans"
       x="156.01753"
       y="559.1626"
       id="text3857"
       sodipodi:linespacing="125%"
       transform="scale(0.98896531,1.0111578)"><tspan
         sodipodi:role="line"
         id="tspan3859"
         x="156.01753"
         y="559.1626">0</tspan></text>
    <text
       xml:space="preserve"
       style="font-size:21.81324005px;font-style:normal;font-weight:normal;line-height:125%;letter-spacing:0px;word-spacing:0px;fill:#000000;fill-opacity:1;stroke:none;font-family:Sans"
       x="186.13501"
       y="605.7038"
       id="text3857-1"
       sodipodi:linespacing="125%"
       transform="scale(0.98896532,1.0111578)"><tspan
         sodipodi:role="line"
         id="tspan3859-1"
         x="186.13501"
         y="605.7038">1</tspan></text>
    <text
       xml:space="preserve"
       style="font-size:21.81324005px;font-style:normal;font-weight:normal;line-height:125%;letter-spacing:0px;word-spacing:0px;fill:#000000;fill-opacity:1;stroke:none;font-family:Sans"
       x="153.43646"
       y="664.34601"
       id="text3857-1-6"
       sodipodi:linespacing="125%"
       transform="scale(0.98896532,1.0111578)"><tspan
         sodipodi:role="line"
         id="tspan3859-1-0"
         x="153.43646"
         y="664.34601">2</tspan></text>
    <text
       xml:space="preserve"
       style="font-size:21.81324005px;font-style:normal;font-weight:normal;line-height:125%;letter-spacing:0px;word-spacing:0px;fill:#000000;fill-opacity:1;stroke:none;font-family:Sans"
       x="88.918091"
       y="663.78339"
       id="text3857-1-6-6"
       sodipodi:linespacing="125%"
       transform="scale(0.98896532,1.0111578)"><tspan
         sodipodi:role="line"
         id="tspan3859-1-0-8"
         x="88.918091"
         y="663.78339">3</tspan></text>
    <text
       xml:space="preserve"
       style="font-size:21.81324005px;font-style:normal;font-weight:normal;line-height:125%;letter-spacing:0px;word-spacing:0px;fill:#000000;fill-opacity:1;stroke:none;font-family:Sans"
       x="52.555019"
       y="606.41028"
       id="text3857-1-6-6-7"
       sodipodi:linespacing="125%"
       transform="scale(0.98896532,1.0111578)"><tspan
         sodipodi:role="line"
         id="tspan3859-1-0-8-6"
         x="52.555019"
         y="606.41028">4</tspan></text>
    <text
       xml:space="preserve"
       style="font-size:21.81324005px;font-style:normal;font-weight:normal;line-height:125%;letter-spacing:0px;word-spacing:0px;fill:#000000;fill-opacity:1;stroke:none;font-family:Sans"
       x="82.130211"
       y="560.49402"
       id="text3857-5"
       sodipodi:linespacing="125%"
       transform="scale(0.98896532,1.0111578)"><tspan
         sodipodi:role="line"
         id="tspan3859-7"
         x="82.130211"
         y="560.49402">5</tspan></text>
    <path
       sodipodi:type="arc"
       style="color:#000000;fill:#ffffff;fill-opacity:1;fill-rule:nonzero;stroke:#000000;stroke-width:2.69000006;stroke-linecap:butt;stroke-linejoin:miter;stroke-miterlimit:4;stroke-opacity:1;stroke-dasharray:none;stroke-dashoffset:0;marker:none;visibility:visible;display:inline;overflow:visible;enable-background:accumulate"
       id="path2985-3"
       sodipodi:cx="252.85715"
       sodipodi:cy="339.80878"
       sodipodi:rx="155.71428"
       sodipodi:ry="147.14285"
       d="m 408.57143,339.80878 c 0,81.26475 -69.71566,147.14285 -155.71428,147.14285 -85.99862,0 -155.714282,-65.8781 -155.714282,-147.14285 0,-81.26476 69.715662,-147.14286 155.714282,-147.14286 85.99862,0 155.71428,65.8781 155.71428,147.14286 z"
       transform="matrix(0.53598425,0,0,0.56720663,188.75303,414.25274)" />
    <path
       sodipodi:type="arc"
       style="color:#000000;fill:#ffffff;fill-opacity:1;fill-rule:nonzero;stroke:#000000;stroke-width:2.69000006;stroke-linecap:butt;stroke-linejoin:miter;stroke-miterlimit:4;stroke-opacity:1;stroke-dasharray:none;stroke-dashoffset:0;marker:none;visibility:visible;display:inline;overflow:visible;enable-background:accumulate"
       id="path3794-7"
       sodipodi:cx="172.98862"
       sodipodi:cy="208.20856"
       sodipodi:rx="5.3033009"
       sodipodi:ry="5.5558391"
       d="m 178.29192,208.20856 c 0,3.0684 -2.37437,5.55584 -5.3033,5.55584 -2.92894,0 -5.3033,-2.48744 -5.3033,-5.55584 0,-3.06841 2.37436,-5.55584 5.3033,-5.55584 2.92893,0 5.3033,2.48743 5.3033,5.55584 z"
       transform="translate(198.68888,331.67459)" />
    <path
       sodipodi:type="arc"
       style="color:#000000;fill:#ffffff;fill-opacity:1;fill-rule:nonzero;stroke:#000000;stroke-width:2.69000006;stroke-linecap:butt;stroke-linejoin:miter;stroke-miterlimit:4;stroke-opacity:1;stroke-dasharray:none;stroke-dashoffset:0;marker:none;visibility:visible;display:inline;overflow:visible;enable-background:accumulate"
       id="path3794-8-9"
       sodipodi:cx="172.98862"
       sodipodi:cy="208.20856"
       sodipodi:rx="5.3033009"
       sodipodi:ry="5.5558391"
       d="m 178.29192,208.20856 c 0,3.0684 -2.37437,5.55584 -5.3033,5.55584 -2.92894,0 -5.3033,-2.48744 -5.3033,-5.55584 0,-3.06841 2.37436,-5.55584 5.3033,-5.55584 2.92893,0 5.3033,2.48743 5.3033,5.55584 z"
       transform="translate(234.66442,396.15099)" />
    <path
       sodipodi:type="arc"
       style="color:#000000;fill:#ffffff;fill-opacity:1;fill-rule:nonzero;stroke:#000000;stroke-width:2.69000006;stroke-linecap:butt;stroke-linejoin:miter;stroke-miterlimit:4;stroke-opacity:1;stroke-dasharray:none;stroke-dashoffset:0;marker:none;visibility:visible;display:inline;overflow:visible;enable-background:accumulate"
       id="path3794-8-8-4"
       sodipodi:cx="172.98862"
       sodipodi:cy="208.20856"
       sodipodi:rx="5.3033009"
       sodipodi:ry="5.5558391"
       d="m 178.29192,208.20856 c 0,3.0684 -2.37437,5.55584 -5.3033,5.55584 -2.92894,0 -5.3033,-2.48744 -5.3033,-5.55584 0,-3.06841 2.37436,-5.55584 5.3033,-5.55584 2.92893,0 5.3033,2.48743 5.3033,5.55584 z"
       transform="translate(202.33954,465.34645)" />
    <path
       sodipodi:type="arc"
       style="color:#000000;fill:#ffffff;fill-opacity:1;fill-rule:nonzero;stroke:#000000;stroke-width:2.69000006;stroke-linecap:butt;stroke-linejoin:miter;stroke-miterlimit:4;stroke-opacity:1;stroke-dasharray:none;stroke-dashoffset:0;marker:none;visibility:visible;display:inline;overflow:visible;enable-background:accumulate"
       id="path3794-8-4-0"
       sodipodi:cx="172.98862"
       sodipodi:cy="208.20856"
       sodipodi:rx="5.3033009"
       sodipodi:ry="5.5558391"
       d="m 178.29192,208.20856 c 0,3.0684 -2.37437,5.55584 -5.3033,5.55584 -2.92894,0 -5.3033,-2.48744 -5.3033,-5.55584 0,-3.06841 2.37436,-5.55584 5.3033,-5.55584 2.92893,0 5.3033,2.48743 5.3033,5.55584 z"
       transform="translate(102.83952,465.85153)" />
    <path
       sodipodi:type="arc"
       style="color:#000000;fill:#ffffff;fill-opacity:1;fill-rule:nonzero;stroke:#000000;stroke-width:2.69000006;stroke-linecap:butt;stroke-linejoin:miter;stroke-miterlimit:4;stroke-opacity:1;stroke-dasharray:none;stroke-dashoffset:0;marker:none;visibility:visible;display:inline;overflow:visible;enable-background:accumulate"
       id="path3794-8-5-3"
       sodipodi:cx="172.98862"
       sodipodi:cy="208.20856"
       sodipodi:rx="5.3033009"
       sodipodi:ry="5.5558391"
       d="m 178.29192,208.20856 c 0,3.0684 -2.37437,5.55584 -5.3033,5.55584 -2.92894,0 -5.3033,-2.48744 -5.3033,-5.55584 0,-3.06841 2.37436,-5.55584 5.3033,-5.55584 2.92893,0 5.3033,2.48743 5.3033,5.55584 z"
       transform="translate(67.989245,396.15073)" />
    <path
       sodipodi:type="arc"
       style="color:#000000;fill:#ffffff;fill-opacity:1;fill-rule:nonzero;stroke:#000000;stroke-width:2.69000006;stroke-linecap:butt;stroke-linejoin:miter;stroke-miterlimit:4;stroke-opacity:1;stroke-dasharray:none;stroke-dashoffset:0;marker:none;visibility:visible;display:inline;overflow:visible;enable-background:accumulate"
       id="path3794-8-7-9"
       sodipodi:cx="172.98862"
       sodipodi:cy="208.20856"
       sodipodi:rx="5.3033009"
       sodipodi:ry="5.5558391"
       d="m 178.29192,208.20856 c 0,3.0684 -2.37437,5.55584 -5.3033,5.55584 -2.92894,0 -5.3033,-2.48744 -5.3033,-5.55584 0,-3.06841 2.37436,-5.55584 5.3033,-5.55584 2.92893,0 5.3033,2.48743 5.3033,5.55584 z"
       transform="translate(103.71225,330.96026)" />
    <text
       xml:space="preserve"
       style="font-size:21.81324005px;font-style:normal;font-weight:normal;line-height:125%;letter-spacing:0px;word-spacing:0px;fill:#000000;fill-opacity:1;stroke:none;font-family:Sans"
       x="357.2951"
       y="558.16357"
       id="text3857-9"
       sodipodi:linespacing="125%"
       transform="scale(0.98896532,1.0111578)"><tspan
         sodipodi:role="line"
         id="tspan3859-5"
         x="357.2951"
         y="558.16357">0</tspan></text>
    <text
       xml:space="preserve"
       style="font-size:21.81324005px;font-style:normal;font-weight:normal;line-height:125%;letter-spacing:0px;word-spacing:0px;fill:#000000;fill-opacity:1;stroke:none;font-family:Sans"
       x="387.4126"
       y="604.70477"
       id="text3857-1-9"
       sodipodi:linespacing="125%"
       transform="scale(0.98896532,1.0111578)"><tspan
         sodipodi:role="line"
         id="tspan3859-1-9"
         x="387.4126"
         y="604.70477">1</tspan></text>
    <text
       xml:space="preserve"
       style="font-size:21.81324005px;font-style:normal;font-weight:normal;line-height:125%;letter-spacing:0px;word-spacing:0px;fill:#000000;fill-opacity:1;stroke:none;font-family:Sans"
       x="354.71405"
       y="663.34698"
       id="text3857-1-6-5"
       sodipodi:linespacing="125%"
       transform="scale(0.98896532,1.0111578)"><tspan
         sodipodi:role="line"
         id="tspan3859-1-0-6"
         x="354.71405"
         y="663.34698">2</tspan></text>
    <text
       xml:space="preserve"
       style="font-size:21.81324005px;font-style:normal;font-weight:normal;line-height:125%;letter-spacing:0px;word-spacing:0px;fill:#000000;fill-opacity:1;stroke:none;font-family:Sans"
       x="290.19565"
       y="662.78436"
       id="text3857-1-6-6-5"
       sodipodi:linespacing="125%"
       transform="scale(0.98896532,1.0111578)"><tspan
         sodipodi:role="line"
         id="tspan3859-1-0-8-8"
         x="290.19565"
         y="662.78436">3</tspan></text>
    <text
       xml:space="preserve"
       style="font-size:21.81324005px;font-style:normal;font-weight:normal;line-height:125%;letter-spacing:0px;word-spacing:0px;fill:#000000;fill-opacity:1;stroke:none;font-family:Sans"
       x="253.83258"
       y="605.41125"
       id="text3857-1-6-6-7-1"
       sodipodi:linespacing="125%"
       transform="scale(0.98896532,1.0111578)"><tspan
         sodipodi:role="line"
         id="tspan3859-1-0-8-6-5"
         x="253.83258"
         y="605.41125">4</tspan></text>
    <text
       xml:space="preserve"
       style="font-size:21.81324005px;font-style:normal;font-weight:normal;line-height:125%;letter-spacing:0px;word-spacing:0px;fill:#000000;fill-opacity:1;stroke:none;font-family:Sans"
       x="283.40778"
       y="559.495"
       id="text3857-5-8"
       sodipodi:linespacing="125%"
       transform="scale(0.98896532,1.0111578)"><tspan
         sodipodi:role="line"
         id="tspan3859-7-7"
         x="283.40778"
         y="559.495">5</tspan></text>
    <path
       sodipodi:type="arc"
       style="color:#000000;fill:#ffffff;fill-opacity:1;fill-rule:nonzero;stroke:#000000;stroke-width:2.69000006;stroke-linecap:butt;stroke-linejoin:miter;stroke-miterlimit:4;stroke-opacity:1;stroke-dasharray:none;stroke-dashoffset:0;marker:none;visibility:visible;display:inline;overflow:visible;enable-background:accumulate"
       id="path2985-0"
       sodipodi:cx="252.85715"
       sodipodi:cy="339.80878"
       sodipodi:rx="155.71428"
       sodipodi:ry="147.14285"
       d="m 408.57143,339.80878 c 0,81.26475 -69.71566,147.14285 -155.71428,147.14285 -85.99862,0 -155.714282,-65.8781 -155.714282,-147.14285 0,-81.26476 69.715662,-147.14286 155.714282,-147.14286 85.99862,0 155.71428,65.8781 155.71428,147.14286 z"
       transform="matrix(0.53598425,0,0,0.56720663,391.04818,413.24258)" />
    <path
       sodipodi:type="arc"
       style="color:#000000;fill:#ffffff;fill-opacity:1;fill-rule:nonzero;stroke:#000000;stroke-width:2.69000006;stroke-linecap:butt;stroke-linejoin:miter;stroke-miterlimit:4;stroke-opacity:1;stroke-dasharray:none;stroke-dashoffset:0;marker:none;visibility:visible;display:inline;overflow:visible;enable-background:accumulate"
       id="path3794-6"
       sodipodi:cx="172.98862"
       sodipodi:cy="208.20856"
       sodipodi:rx="5.3033009"
       sodipodi:ry="5.5558391"
       d="m 178.29192,208.20856 c 0,3.0684 -2.37437,5.55584 -5.3033,5.55584 -2.92894,0 -5.3033,-2.48744 -5.3033,-5.55584 0,-3.06841 2.37436,-5.55584 5.3033,-5.55584 2.92893,0 5.3033,2.48743 5.3033,5.55584 z"
       transform="translate(400.98402,330.66443)" />
    <path
       sodipodi:type="arc"
       style="color:#000000;fill:#ffffff;fill-opacity:1;fill-rule:nonzero;stroke:#000000;stroke-width:2.69000006;stroke-linecap:butt;stroke-linejoin:miter;stroke-miterlimit:4;stroke-opacity:1;stroke-dasharray:none;stroke-dashoffset:0;marker:none;visibility:visible;display:inline;overflow:visible;enable-background:accumulate"
       id="path3794-8-83"
       sodipodi:cx="172.98862"
       sodipodi:cy="208.20856"
       sodipodi:rx="5.3033009"
       sodipodi:ry="5.5558391"
       d="m 178.29192,208.20856 c 0,3.0684 -2.37437,5.55584 -5.3033,5.55584 -2.92894,0 -5.3033,-2.48744 -5.3033,-5.55584 0,-3.06841 2.37436,-5.55584 5.3033,-5.55584 2.92893,0 5.3033,2.48743 5.3033,5.55584 z"
       transform="translate(436.95956,395.14083)" />
    <path
       sodipodi:type="arc"
       style="color:#000000;fill:#ffffff;fill-opacity:1;fill-rule:nonzero;stroke:#000000;stroke-width:2.69000006;stroke-linecap:butt;stroke-linejoin:miter;stroke-miterlimit:4;stroke-opacity:1;stroke-dasharray:none;stroke-dashoffset:0;marker:none;visibility:visible;display:inline;overflow:visible;enable-background:accumulate"
       id="path3794-8-8-2"
       sodipodi:cx="172.98862"
       sodipodi:cy="208.20856"
       sodipodi:rx="5.3033009"
       sodipodi:ry="5.5558391"
       d="m 178.29192,208.20856 c 0,3.0684 -2.37437,5.55584 -5.3033,5.55584 -2.92894,0 -5.3033,-2.48744 -5.3033,-5.55584 0,-3.06841 2.37436,-5.55584 5.3033,-5.55584 2.92893,0 5.3033,2.48743 5.3033,5.55584 z"
       transform="translate(404.63468,464.33629)" />
    <path
       sodipodi:type="arc"
       style="color:#000000;fill:#ffffff;fill-opacity:1;fill-rule:nonzero;stroke:#000000;stroke-width:2.69000006;stroke-linecap:butt;stroke-linejoin:miter;stroke-miterlimit:4;stroke-opacity:1;stroke-dasharray:none;stroke-dashoffset:0;marker:none;visibility:visible;display:inline;overflow:visible;enable-background:accumulate"
       id="path3794-8-4-09"
       sodipodi:cx="172.98862"
       sodipodi:cy="208.20856"
       sodipodi:rx="5.3033009"
       sodipodi:ry="5.5558391"
       d="m 178.29192,208.20856 c 0,3.0684 -2.37437,5.55584 -5.3033,5.55584 -2.92894,0 -5.3033,-2.48744 -5.3033,-5.55584 0,-3.06841 2.37436,-5.55584 5.3033,-5.55584 2.92893,0 5.3033,2.48743 5.3033,5.55584 z"
       transform="translate(305.13466,464.84137)" />
    <path
       sodipodi:type="arc"
       style="color:#000000;fill:#ffffff;fill-opacity:1;fill-rule:nonzero;stroke:#000000;stroke-width:2.69000006;stroke-linecap:butt;stroke-linejoin:miter;stroke-miterlimit:4;stroke-opacity:1;stroke-dasharray:none;stroke-dashoffset:0;marker:none;visibility:visible;display:inline;overflow:visible;enable-background:accumulate"
       id="path3794-8-5-2"
       sodipodi:cx="172.98862"
       sodipodi:cy="208.20856"
       sodipodi:rx="5.3033009"
       sodipodi:ry="5.5558391"
       d="m 178.29192,208.20856 c 0,3.0684 -2.37437,5.55584 -5.3033,5.55584 -2.92894,0 -5.3033,-2.48744 -5.3033,-5.55584 0,-3.06841 2.37436,-5.55584 5.3033,-5.55584 2.92893,0 5.3033,2.48743 5.3033,5.55584 z"
       transform="translate(270.28439,395.14057)" />
    <path
       sodipodi:type="arc"
       style="color:#000000;fill:#ffffff;fill-opacity:1;fill-rule:nonzero;stroke:#000000;stroke-width:2.69000006;stroke-linecap:butt;stroke-linejoin:miter;stroke-miterlimit:4;stroke-opacity:1;stroke-dasharray:none;stroke-dashoffset:0;marker:none;visibility:visible;display:inline;overflow:visible;enable-background:accumulate"
       id="path3794-8-7-97"
       sodipodi:cx="172.98862"
       sodipodi:cy="208.20856"
       sodipodi:rx="5.3033009"
       sodipodi:ry="5.5558391"
       d="m 178.29192,208.20856 c 0,3.0684 -2.37437,5.55584 -5.3033,5.55584 -2.92894,0 -5.3033,-2.48744 -5.3033,-5.55584 0,-3.06841 2.37436,-5.55584 5.3033,-5.55584 2.92893,0 5.3033,2.48743 5.3033,5.55584 z"
       transform="translate(306.00739,329.9501)" />
    <text
       xml:space="preserve"
       style="font-size:21.81324005px;font-style:normal;font-weight:normal;line-height:125%;letter-spacing:0px;word-spacing:0px;fill:#000000;fill-opacity:1;stroke:none;font-family:Sans"
       x="561.84741"
       y="557.16461"
       id="text3857-7"
       sodipodi:linespacing="125%"
       transform="scale(0.98896532,1.0111578)"><tspan
         sodipodi:role="line"
         id="tspan3859-6"
         x="561.84741"
         y="557.16461">0</tspan></text>
    <text
       xml:space="preserve"
       style="font-size:21.81324005px;font-style:normal;font-weight:normal;line-height:125%;letter-spacing:0px;word-spacing:0px;fill:#000000;fill-opacity:1;stroke:none;font-family:Sans"
       x="591.9649"
       y="603.70581"
       id="text3857-1-0"
       sodipodi:linespacing="125%"
       transform="scale(0.98896532,1.0111578)"><tspan
         sodipodi:role="line"
         id="tspan3859-1-5"
         x="591.9649"
         y="603.70581">1</tspan></text>
    <text
       xml:space="preserve"
       style="font-size:21.81324005px;font-style:normal;font-weight:normal;line-height:125%;letter-spacing:0px;word-spacing:0px;fill:#000000;fill-opacity:1;stroke:none;font-family:Sans"
       x="559.2663"
       y="662.34802"
       id="text3857-1-6-7"
       sodipodi:linespacing="125%"
       transform="scale(0.98896532,1.0111578)"><tspan
         sodipodi:role="line"
         id="tspan3859-1-0-67"
         x="559.2663"
         y="662.34802">2</tspan></text>
    <text
       xml:space="preserve"
       style="font-size:21.81324005px;font-style:normal;font-weight:normal;line-height:125%;letter-spacing:0px;word-spacing:0px;fill:#000000;fill-opacity:1;stroke:none;font-family:Sans"
       x="494.74796"
       y="661.7854"
       id="text3857-1-6-6-0"
       sodipodi:linespacing="125%"
       transform="scale(0.98896532,1.0111578)"><tspan
         sodipodi:role="line"
         id="tspan3859-1-0-8-7"
         x="494.74796"
         y="661.7854">3</tspan></text>
    <text
       xml:space="preserve"
       style="font-size:21.81324005px;font-style:normal;font-weight:normal;line-height:125%;letter-spacing:0px;word-spacing:0px;fill:#000000;fill-opacity:1;stroke:none;font-family:Sans"
       x="458.38489"
       y="604.41229"
       id="text3857-1-6-6-7-9"
       sodipodi:linespacing="125%"
       transform="scale(0.98896532,1.0111578)"><tspan
         sodipodi:role="line"
         id="tspan3859-1-0-8-6-56"
         x="458.38489"
         y="604.41229">4</tspan></text>
    <text
       xml:space="preserve"
       style="font-size:21.81324005px;font-style:normal;font-weight:normal;line-height:125%;letter-spacing:0px;word-spacing:0px;fill:#000000;fill-opacity:1;stroke:none;font-family:Sans"
       x="487.96008"
       y="558.49603"
       id="text3857-5-82"
       sodipodi:linespacing="125%"
       transform="scale(0.98896532,1.0111578)"><tspan
         sodipodi:role="line"
         id="tspan3859-7-5"
         x="487.96008"
         y="558.49603">5</tspan></text>
    <path
       sodipodi:type="arc"
       style="color:#000000;fill:#ffffff;fill-opacity:1;fill-rule:nonzero;stroke:#000000;stroke-width:2.69000006;stroke-linecap:butt;stroke-linejoin:miter;stroke-miterlimit:4;stroke-opacity:1;stroke-dasharray:none;stroke-dashoffset:0;marker:none;visibility:visible;display:inline;overflow:visible;enable-background:accumulate"
       id="path2985-5"
       sodipodi:cx="252.85715"
       sodipodi:cy="339.80878"
       sodipodi:rx="155.71428"
       sodipodi:ry="147.14285"
       d="m 408.57143,339.80878 c 0,81.26475 -69.71566,147.14285 -155.71428,147.14285 -85.99862,0 -155.714282,-65.8781 -155.714282,-147.14285 0,-81.26476 69.715662,-147.14286 155.714282,-147.14286 85.99862,0 155.71428,65.8781 155.71428,147.14286 z"
       transform="matrix(0.53598425,0,0,0.56720663,590.73129,413.24258)" />
    <path
       sodipodi:type="arc"
       style="color:#000000;fill:#ffffff;fill-opacity:1;fill-rule:nonzero;stroke:#000000;stroke-width:2.69000006;stroke-linecap:butt;stroke-linejoin:miter;stroke-miterlimit:4;stroke-opacity:1;stroke-dasharray:none;stroke-dashoffset:0;marker:none;visibility:visible;display:inline;overflow:visible;enable-background:accumulate"
       id="path3794-1"
       sodipodi:cx="172.98862"
       sodipodi:cy="208.20856"
       sodipodi:rx="5.3033009"
       sodipodi:ry="5.5558391"
       d="m 178.29192,208.20856 c 0,3.0684 -2.37437,5.55584 -5.3033,5.55584 -2.92894,0 -5.3033,-2.48744 -5.3033,-5.55584 0,-3.06841 2.37436,-5.55584 5.3033,-5.55584 2.92893,0 5.3033,2.48743 5.3033,5.55584 z"
       transform="translate(600.66714,330.66443)" />
    <path
       sodipodi:type="arc"
       style="color:#000000;fill:#ffffff;fill-opacity:1;fill-rule:nonzero;stroke:#000000;stroke-width:2.69000006;stroke-linecap:butt;stroke-linejoin:miter;stroke-miterlimit:4;stroke-opacity:1;stroke-dasharray:none;stroke-dashoffset:0;marker:none;visibility:visible;display:inline;overflow:visible;enable-background:accumulate"
       id="path3794-8-6"
       sodipodi:cx="172.98862"
       sodipodi:cy="208.20856"
       sodipodi:rx="5.3033009"
       sodipodi:ry="5.5558391"
       d="m 178.29192,208.20856 c 0,3.0684 -2.37437,5.55584 -5.3033,5.55584 -2.92894,0 -5.3033,-2.48744 -5.3033,-5.55584 0,-3.06841 2.37436,-5.55584 5.3033,-5.55584 2.92893,0 5.3033,2.48743 5.3033,5.55584 z"
       transform="translate(636.64268,395.14083)" />
    <path
       sodipodi:type="arc"
       style="color:#000000;fill:#ffffff;fill-opacity:1;fill-rule:nonzero;stroke:#000000;stroke-width:2.69000006;stroke-linecap:butt;stroke-linejoin:miter;stroke-miterlimit:4;stroke-opacity:1;stroke-dasharray:none;stroke-dashoffset:0;marker:none;visibility:visible;display:inline;overflow:visible;enable-background:accumulate"
       id="path3794-8-8-0"
       sodipodi:cx="172.98862"
       sodipodi:cy="208.20856"
       sodipodi:rx="5.3033009"
       sodipodi:ry="5.5558391"
       d="m 178.29192,208.20856 c 0,3.0684 -2.37437,5.55584 -5.3033,5.55584 -2.92894,0 -5.3033,-2.48744 -5.3033,-5.55584 0,-3.06841 2.37436,-5.55584 5.3033,-5.55584 2.92893,0 5.3033,2.48743 5.3033,5.55584 z"
       transform="translate(604.3178,464.33629)" />
    <path
       sodipodi:type="arc"
       style="color:#000000;fill:#ffffff;fill-opacity:1;fill-rule:nonzero;stroke:#000000;stroke-width:2.69000006;stroke-linecap:butt;stroke-linejoin:miter;stroke-miterlimit:4;stroke-opacity:1;stroke-dasharray:none;stroke-dashoffset:0;marker:none;visibility:visible;display:inline;overflow:visible;enable-background:accumulate"
       id="path3794-8-4-1"
       sodipodi:cx="172.98862"
       sodipodi:cy="208.20856"
       sodipodi:rx="5.3033009"
       sodipodi:ry="5.5558391"
       d="m 178.29192,208.20856 c 0,3.0684 -2.37437,5.55584 -5.3033,5.55584 -2.92894,0 -5.3033,-2.48744 -5.3033,-5.55584 0,-3.06841 2.37436,-5.55584 5.3033,-5.55584 2.92893,0 5.3033,2.48743 5.3033,5.55584 z"
       transform="translate(504.81777,464.84137)" />
    <path
       sodipodi:type="arc"
       style="color:#000000;fill:#ffffff;fill-opacity:1;fill-rule:nonzero;stroke:#000000;stroke-width:2.69000006;stroke-linecap:butt;stroke-linejoin:miter;stroke-miterlimit:4;stroke-opacity:1;stroke-dasharray:none;stroke-dashoffset:0;marker:none;visibility:visible;display:inline;overflow:visible;enable-background:accumulate"
       id="path3794-8-5-5"
       sodipodi:cx="172.98862"
       sodipodi:cy="208.20856"
       sodipodi:rx="5.3033009"
       sodipodi:ry="5.5558391"
       d="m 178.29192,208.20856 c 0,3.0684 -2.37437,5.55584 -5.3033,5.55584 -2.92894,0 -5.3033,-2.48744 -5.3033,-5.55584 0,-3.06841 2.37436,-5.55584 5.3033,-5.55584 2.92893,0 5.3033,2.48743 5.3033,5.55584 z"
       transform="translate(469.9675,395.14057)" />
    <path
       sodipodi:type="arc"
       style="color:#000000;fill:#ffffff;fill-opacity:1;fill-rule:nonzero;stroke:#000000;stroke-width:2.69000006;stroke-linecap:butt;stroke-linejoin:miter;stroke-miterlimit:4;stroke-opacity:1;stroke-dasharray:none;stroke-dashoffset:0;marker:none;visibility:visible;display:inline;overflow:visible;enable-background:accumulate"
       id="path3794-8-7-2"
       sodipodi:cx="172.98862"
       sodipodi:cy="208.20856"
       sodipodi:rx="5.3033009"
       sodipodi:ry="5.5558391"
       d="m 178.29192,208.20856 c 0,3.0684 -2.37437,5.55584 -5.3033,5.55584 -2.92894,0 -5.3033,-2.48744 -5.3033,-5.55584 0,-3.06841 2.37436,-5.55584 5.3033,-5.55584 2.92893,0 5.3033,2.48743 5.3033,5.55584 z"
       transform="translate(505.6905,329.9501)" />
    <text
       xml:space="preserve"
       style="font-size:21.81324005px;font-style:normal;font-weight:normal;line-height:125%;letter-spacing:0px;word-spacing:0px;fill:#000000;fill-opacity:1;stroke:none;font-family:Sans"
       x="763.75854"
       y="557.16461"
       id="text3857-73"
       sodipodi:linespacing="125%"
       transform="scale(0.98896532,1.0111578)"><tspan
         sodipodi:role="line"
         id="tspan3859-51"
         x="763.75854"
         y="557.16461">0</tspan></text>
    <text
       xml:space="preserve"
       style="font-size:21.81324005px;font-style:normal;font-weight:normal;line-height:125%;letter-spacing:0px;word-spacing:0px;fill:#000000;fill-opacity:1;stroke:none;font-family:Sans"
       x="793.87598"
       y="603.70581"
       id="text3857-1-5"
       sodipodi:linespacing="125%"
       transform="scale(0.98896532,1.0111578)"><tspan
         sodipodi:role="line"
         id="tspan3859-1-6"
         x="793.87598"
         y="603.70581">1</tspan></text>
    <text
       xml:space="preserve"
       style="font-size:21.81324005px;font-style:normal;font-weight:normal;line-height:125%;letter-spacing:0px;word-spacing:0px;fill:#000000;fill-opacity:1;stroke:none;font-family:Sans"
       x="761.17743"
       y="662.34802"
       id="text3857-1-6-3"
       sodipodi:linespacing="125%"
       transform="scale(0.98896532,1.0111578)"><tspan
         sodipodi:role="line"
         id="tspan3859-1-0-4"
         x="761.17743"
         y="662.34802">2</tspan></text>
    <text
       xml:space="preserve"
       style="font-size:21.81324005px;font-style:normal;font-weight:normal;line-height:125%;letter-spacing:0px;word-spacing:0px;fill:#000000;fill-opacity:1;stroke:none;font-family:Sans"
       x="696.65906"
       y="661.7854"
       id="text3857-1-6-6-53"
       sodipodi:linespacing="125%"
       transform="scale(0.98896532,1.0111578)"><tspan
         sodipodi:role="line"
         id="tspan3859-1-0-8-2"
         x="696.65906"
         y="661.7854">3</tspan></text>
    <text
       xml:space="preserve"
       style="font-size:21.81324005px;font-style:normal;font-weight:normal;line-height:125%;letter-spacing:0px;word-spacing:0px;fill:#000000;fill-opacity:1;stroke:none;font-family:Sans"
       x="660.29602"
       y="604.41229"
       id="text3857-1-6-6-7-7"
       sodipodi:linespacing="125%"
       transform="scale(0.98896532,1.0111578)"><tspan
         sodipodi:role="line"
         id="tspan3859-1-0-8-6-8"
         x="660.29602"
         y="604.41229">4</tspan></text>
    <text
       xml:space="preserve"
       style="font-size:21.81324005px;font-style:normal;font-weight:normal;line-height:125%;letter-spacing:0px;word-spacing:0px;fill:#000000;fill-opacity:1;stroke:none;font-family:Sans"
       x="689.87122"
       y="558.49603"
       id="text3857-5-9"
       sodipodi:linespacing="125%"
       transform="scale(0.98896532,1.0111578)"><tspan
         sodipodi:role="line"
         id="tspan3859-7-3"
         x="689.87122"
         y="558.49603">5</tspan></text>
    <path
       sodipodi:type="arc"
       style="color:#000000;fill:#ffffff;fill-opacity:1;fill-rule:nonzero;stroke:#000000;stroke-width:2.69000006;stroke-linecap:butt;stroke-linejoin:miter;stroke-miterlimit:4;stroke-opacity:1;stroke-dasharray:none;stroke-dashoffset:0;marker:none;visibility:visible;display:inline;overflow:visible;enable-background:accumulate"
       id="path2985-7"
       sodipodi:cx="252.85715"
       sodipodi:cy="339.80878"
       sodipodi:rx="155.71428"
       sodipodi:ry="147.14285"
       d="m 408.57143,339.80878 c 0,81.26475 -69.71566,147.14285 -155.71428,147.14285 -85.99862,0 -155.714282,-65.8781 -155.714282,-147.14285 0,-81.26476 69.715662,-147.14286 155.714282,-147.14286 85.99862,0 155.71428,65.8781 155.71428,147.14286 z"
       transform="matrix(0.53598425,0,0,0.56720663,793.77793,412.12281)" />
    <path
       sodipodi:type="arc"
       style="color:#000000;fill:#ffffff;fill-opacity:1;fill-rule:nonzero;stroke:#000000;stroke-width:2.69000006;stroke-linecap:butt;stroke-linejoin:miter;stroke-miterlimit:4;stroke-opacity:1;stroke-dasharray:none;stroke-dashoffset:0;marker:none;visibility:visible;display:inline;overflow:visible;enable-background:accumulate"
       id="path3794-2"
       sodipodi:cx="172.98862"
       sodipodi:cy="208.20856"
       sodipodi:rx="5.3033009"
       sodipodi:ry="5.5558391"
       d="m 178.29192,208.20856 c 0,3.0684 -2.37437,5.55584 -5.3033,5.55584 -2.92894,0 -5.3033,-2.48744 -5.3033,-5.55584 0,-3.06841 2.37436,-5.55584 5.3033,-5.55584 2.92893,0 5.3033,2.48743 5.3033,5.55584 z"
       transform="translate(803.71378,329.54466)" />
    <path
       sodipodi:type="arc"
       style="color:#000000;fill:#ffffff;fill-opacity:1;fill-rule:nonzero;stroke:#000000;stroke-width:2.69000006;stroke-linecap:butt;stroke-linejoin:miter;stroke-miterlimit:4;stroke-opacity:1;stroke-dasharray:none;stroke-dashoffset:0;marker:none;visibility:visible;display:inline;overflow:visible;enable-background:accumulate"
       id="path3794-8-1"
       sodipodi:cx="172.98862"
       sodipodi:cy="208.20856"
       sodipodi:rx="5.3033009"
       sodipodi:ry="5.5558391"
       d="m 178.29192,208.20856 c 0,3.0684 -2.37437,5.55584 -5.3033,5.55584 -2.92894,0 -5.3033,-2.48744 -5.3033,-5.55584 0,-3.06841 2.37436,-5.55584 5.3033,-5.55584 2.92893,0 5.3033,2.48743 5.3033,5.55584 z"
       transform="translate(839.68932,394.02106)" />
    <path
       sodipodi:type="arc"
       style="color:#000000;fill:#ffffff;fill-opacity:1;fill-rule:nonzero;stroke:#000000;stroke-width:2.69000006;stroke-linecap:butt;stroke-linejoin:miter;stroke-miterlimit:4;stroke-opacity:1;stroke-dasharray:none;stroke-dashoffset:0;marker:none;visibility:visible;display:inline;overflow:visible;enable-background:accumulate"
       id="path3794-8-8-6"
       sodipodi:cx="172.98862"
       sodipodi:cy="208.20856"
       sodipodi:rx="5.3033009"
       sodipodi:ry="5.5558391"
       d="m 178.29192,208.20856 c 0,3.0684 -2.37437,5.55584 -5.3033,5.55584 -2.92894,0 -5.3033,-2.48744 -5.3033,-5.55584 0,-3.06841 2.37436,-5.55584 5.3033,-5.55584 2.92893,0 5.3033,2.48743 5.3033,5.55584 z"
       transform="translate(807.36443,463.21652)" />
    <path
       sodipodi:type="arc"
       style="color:#000000;fill:#ffffff;fill-opacity:1;fill-rule:nonzero;stroke:#000000;stroke-width:2.69000006;stroke-linecap:butt;stroke-linejoin:miter;stroke-miterlimit:4;stroke-opacity:1;stroke-dasharray:none;stroke-dashoffset:0;marker:none;visibility:visible;display:inline;overflow:visible;enable-background:accumulate"
       id="path3794-8-4-7"
       sodipodi:cx="172.98862"
       sodipodi:cy="208.20856"
       sodipodi:rx="5.3033009"
       sodipodi:ry="5.5558391"
       d="m 178.29192,208.20856 c 0,3.0684 -2.37437,5.55584 -5.3033,5.55584 -2.92894,0 -5.3033,-2.48744 -5.3033,-5.55584 0,-3.06841 2.37436,-5.55584 5.3033,-5.55584 2.92893,0 5.3033,2.48743 5.3033,5.55584 z"
       transform="translate(707.86441,463.7216)" />
    <path
       sodipodi:type="arc"
       style="color:#000000;fill:#ffffff;fill-opacity:1;fill-rule:nonzero;stroke:#000000;stroke-width:2.69000006;stroke-linecap:butt;stroke-linejoin:miter;stroke-miterlimit:4;stroke-opacity:1;stroke-dasharray:none;stroke-dashoffset:0;marker:none;visibility:visible;display:inline;overflow:visible;enable-background:accumulate"
       id="path3794-8-5-9"
       sodipodi:cx="172.98862"
       sodipodi:cy="208.20856"
       sodipodi:rx="5.3033009"
       sodipodi:ry="5.5558391"
       d="m 178.29192,208.20856 c 0,3.0684 -2.37437,5.55584 -5.3033,5.55584 -2.92894,0 -5.3033,-2.48744 -5.3033,-5.55584 0,-3.06841 2.37436,-5.55584 5.3033,-5.55584 2.92893,0 5.3033,2.48743 5.3033,5.55584 z"
       transform="translate(673.01414,394.0208)" />
    <path
       sodipodi:type="arc"
       style="color:#000000;fill:#ffffff;fill-opacity:1;fill-rule:nonzero;stroke:#000000;stroke-width:2.69000006;stroke-linecap:butt;stroke-linejoin:miter;stroke-miterlimit:4;stroke-opacity:1;stroke-dasharray:none;stroke-dashoffset:0;marker:none;visibility:visible;display:inline;overflow:visible;enable-background:accumulate"
       id="path3794-8-7-6"
       sodipodi:cx="172.98862"
       sodipodi:cy="208.20856"
       sodipodi:rx="5.3033009"
       sodipodi:ry="5.5558391"
       d="m 178.29192,208.20856 c 0,3.0684 -2.37437,5.55584 -5.3033,5.55584 -2.92894,0 -5.3033,-2.48744 -5.3033,-5.55584 0,-3.06841 2.37436,-5.55584 5.3033,-5.55584 2.92893,0 5.3033,2.48743 5.3033,5.55584 z"
       transform="translate(708.73714,328.83033)" />
    <text
       xml:space="preserve"
       style="font-size:21.81324005px;font-style:normal;font-weight:normal;line-height:125%;letter-spacing:0px;word-spacing:0px;fill:#000000;fill-opacity:1;stroke:none;font-family:Sans"
       x="969.07074"
       y="556.05719"
       id="text3857-2"
       sodipodi:linespacing="125%"
       transform="scale(0.98896532,1.0111578)"><tspan
         sodipodi:role="line"
         id="tspan3859-61"
         x="969.07074"
         y="556.05719">0</tspan></text>
    <text
       xml:space="preserve"
       style="font-size:21.81324005px;font-style:normal;font-weight:normal;line-height:125%;letter-spacing:0px;word-spacing:0px;fill:#000000;fill-opacity:1;stroke:none;font-family:Sans"
       x="999.18817"
       y="602.59839"
       id="text3857-1-54"
       sodipodi:linespacing="125%"
       transform="scale(0.98896532,1.0111578)"><tspan
         sodipodi:role="line"
         id="tspan3859-1-3"
         x="999.18817"
         y="602.59839">1</tspan></text>
    <text
       xml:space="preserve"
       style="font-size:21.81324005px;font-style:normal;font-weight:normal;line-height:125%;letter-spacing:0px;word-spacing:0px;fill:#000000;fill-opacity:1;stroke:none;font-family:Sans"
       x="966.48962"
       y="661.2406"
       id="text3857-1-6-69"
       sodipodi:linespacing="125%"
       transform="scale(0.98896532,1.0111578)"><tspan
         sodipodi:role="line"
         id="tspan3859-1-0-7"
         x="966.48962"
         y="661.2406">2</tspan></text>
    <text
       xml:space="preserve"
       style="font-size:21.81324005px;font-style:normal;font-weight:normal;line-height:125%;letter-spacing:0px;word-spacing:0px;fill:#000000;fill-opacity:1;stroke:none;font-family:Sans"
       x="901.97125"
       y="660.67798"
       id="text3857-1-6-6-6"
       sodipodi:linespacing="125%"
       transform="scale(0.98896532,1.0111578)"><tspan
         sodipodi:role="line"
         id="tspan3859-1-0-8-4"
         x="901.97125"
         y="660.67798">3</tspan></text>
    <text
       xml:space="preserve"
       style="font-size:21.81324005px;font-style:normal;font-weight:normal;line-height:125%;letter-spacing:0px;word-spacing:0px;fill:#000000;fill-opacity:1;stroke:none;font-family:Sans"
       x="865.60815"
       y="603.30487"
       id="text3857-1-6-6-7-2"
       sodipodi:linespacing="125%"
       transform="scale(0.98896532,1.0111578)"><tspan
         sodipodi:role="line"
         id="tspan3859-1-0-8-6-7"
         x="865.60815"
         y="603.30487">4</tspan></text>
    <text
       xml:space="preserve"
       style="font-size:21.81324005px;font-style:normal;font-weight:normal;line-height:125%;letter-spacing:0px;word-spacing:0px;fill:#000000;fill-opacity:1;stroke:none;font-family:Sans"
       x="895.18335"
       y="557.38861"
       id="text3857-5-90"
       sodipodi:linespacing="125%"
       transform="scale(0.98896532,1.0111578)"><tspan
         sodipodi:role="line"
         id="tspan3859-7-33"
         x="895.18335"
         y="557.38861">5</tspan></text>
    <text
       xml:space="preserve"
       style="font-size:12px;font-style:normal;font-weight:normal;line-height:125%;letter-spacing:0px;word-spacing:0px;fill:#000000;fill-opacity:1;stroke:none;font-family:Sans"
       x="48.487324"
       y="447.10962"
       id="text4167"
       sodipodi:linespacing="125%"
       transform="translate(0,308.2677)"><tspan
         sodipodi:role="line"
         id="tspan4169"
         x="48.487324"
         y="447.10962" /></text>
    <text
       xml:space="preserve"
       style="font-size:40px;font-style:normal;font-weight:normal;line-height:125%;letter-spacing:0px;word-spacing:0px;fill:#000000;fill-opacity:1;stroke:none;font-family:Sans"
       x="41.416256"
       y="716.99152"
       id="text4171"
       sodipodi:linespacing="125%"><tspan
         sodipodi:role="line"
         id="tspan4173"
         x="41.416256"
         y="716.99152"
         style="font-size:11px">Окружность с N = 6 точками</tspan></text>
    <text
       xml:space="preserve"
       style="font-size:40px;font-style:normal;font-weight:normal;line-height:125%;letter-spacing:0px;word-spacing:0px;fill:#000000;fill-opacity:1;stroke:none;font-family:Sans"
       x="224.26448"
       y="744.17316"
       id="text4171-5"
       sodipodi:linespacing="125%"><tspan
         sodipodi:role="line"
         id="tspan4173-6"
         x="224.26448"
         y="744.17316"
         style="font-size:11px">Шаг1. Закрашивается точка №4</tspan></text>
    <path
       style="color:#000000;fill:#aa0000;fill-opacity:1;fill-rule:nonzero;stroke:#000000;stroke-width:0.96071428;stroke-linecap:butt;stroke-linejoin:miter;stroke-miterlimit:4;stroke-opacity:1;stroke-dasharray:none;stroke-dashoffset:0;marker:none;visibility:visible;display:inline;overflow:visible;enable-background:accumulate"
       d="m 239.99375,299.97605 c -1.0839,-0.39441 -2.49714,-2.04882 -2.70735,-3.16937 -0.46445,-2.4757 2.0689,-5.21054 4.30643,-4.64896 0.54585,0.137 1.454,0.71064 2.01812,1.27475 0.81539,0.8154 1.02566,1.34449 1.02566,2.58082 0,1.8667 -0.74608,3.04316 -2.35663,3.71609 -1.27107,0.53109 -1.45118,0.55052 -2.28623,0.24667 z"
       id="path4196"
       inkscape:connector-curvature="0"
       transform="translate(0,308.2677)" />
    <text
       xml:space="preserve"
       style="font-size:40px;font-style:normal;font-weight:normal;line-height:125%;letter-spacing:0px;word-spacing:0px;fill:#000000;fill-opacity:1;stroke:none;font-family:Sans"
       x="436.86841"
       y="716.01447"
       id="text4171-5-7"
       sodipodi:linespacing="125%"><tspan
         sodipodi:role="line"
         id="tspan4173-6-2"
         x="436.86841"
         y="716.01447"
         style="font-size:11px">Шаг2. Закрашивается точка №2</tspan></text>
  </g>
</svg>
