<?xml version="1.0" encoding="UTF-8" standalone="no"?>
<!-- Created with Inkscape (http://www.inkscape.org/) -->

<svg
   xmlns:dc="http://purl.org/dc/elements/1.1/"
   xmlns:cc="http://creativecommons.org/ns#"
   xmlns:rdf="http://www.w3.org/1999/02/22-rdf-syntax-ns#"
   xmlns:svg="http://www.w3.org/2000/svg"
   xmlns="http://www.w3.org/2000/svg"
   xmlns:sodipodi="http://sodipodi.sourceforge.net/DTD/sodipodi-0.dtd"
   xmlns:inkscape="http://www.inkscape.org/namespaces/inkscape"
   width="499.78125"
   height="273.03125"
   id="svg2"
   version="1.1"
   inkscape:version="0.48.4 r9939"
   sodipodi:docname="drawing2.svg">
  <defs
     id="defs4">
    <inkscape:path-effect
       effect="construct_grid"
       id="path-effect3774"
       is_visible="true"
       nr_x="6"
       nr_y="11" />
  </defs>
  <sodipodi:namedview
     id="base"
     pagecolor="#ffffff"
     bordercolor="#666666"
     borderopacity="1.0"
     inkscape:pageopacity="0.0"
     inkscape:pageshadow="2"
     inkscape:zoom="1.4"
     inkscape:cx="295.58298"
     inkscape:cy="53.311387"
     inkscape:document-units="px"
     inkscape:current-layer="layer1"
     showgrid="false"
     inkscape:window-width="1680"
     inkscape:window-height="1026"
     inkscape:window-x="0"
     inkscape:window-y="24"
     inkscape:window-maximized="1"
     fit-margin-top="0"
     fit-margin-left="0"
     fit-margin-right="0"
     fit-margin-bottom="0" />
  <metadata
     id="metadata7">
    <rdf:RDF>
      <cc:Work
         rdf:about="">
        <dc:format>image/svg+xml</dc:format>
        <dc:type
           rdf:resource="http://purl.org/dc/dcmitype/StillImage" />
        <dc:title></dc:title>
      </cc:Work>
    </rdf:RDF>
  </metadata>
  <g
     inkscape:label="Layer 1"
     inkscape:groupmode="layer"
     id="layer1"
     transform="translate(-62.28125,-286.71875)">
    <path
       style="color:#000000;fill:#ffffff;fill-opacity:1;fill-rule:nonzero;stroke:#000000;stroke-width:0.90960824;stroke-linecap:butt;stroke-linejoin:miter;stroke-miterlimit:4;stroke-opacity:1;stroke-dashoffset:0;marker:none;visibility:visible;display:inline;overflow:visible;enable-background:accumulate"
       d="m 561.60405,287.18671 -498.86529,0 m 498.86529,45.35139 -498.86529,0 m 498.86529,45.35139 -498.86529,0 m 498.86529,45.35139 -498.86529,0 m 498.86529,45.35139 -498.86529,0 m 498.86529,45.35139 -498.86529,0 m 498.86529,45.35139 -498.86529,0 m 498.86529,-272.10834 0,272.10834 m -45.35139,-272.10834 0,272.10834 m -45.35139,-272.10834 0,272.10834 m -45.35139,-272.10834 0,272.10834 m -45.35139,-272.10834 0,272.10834 m -45.35139,-272.10834 0,272.10834 m -45.35139,-272.10834 0,272.10834 m -45.35139,-272.10834 0,272.10834 m -45.35139,-272.10834 0,272.10834 m -45.35139,-272.10834 0,272.10834 m -45.35139,-272.10834 0,272.10834 m -45.35139,-272.10834 0,272.10834"
       id="rect3769"
       inkscape:path-effect="#path-effect3774"
       inkscape:original-d="m 516.25266,287.18671 45.35139,0 0,45.35139 -45.35139,0 z"
       inkscape:connector-curvature="0" />
    <path
       style="color:#000000;fill:#ffffff;fill-opacity:1;fill-rule:nonzero;stroke:none;stroke-width:1.92142856;marker:none;visibility:visible;display:inline;overflow:visible;enable-background:accumulate"
       d="m 109.13889,445.91542 0,-21.78571 21.78571,0 21.78572,0 0,21.78571 0,21.78572 -21.78572,0 -21.78571,0 0,-21.78572 z"
       id="path3776"
       inkscape:connector-curvature="0" />
    <path
       style="color:#000000;fill:#ffffff;fill-opacity:1;fill-rule:nonzero;stroke:none;stroke-width:2.69000006;marker:none;visibility:visible;display:inline;overflow:visible;enable-background:accumulate"
       d="m 109.13889,445.91542 0,-21.78571 21.78571,0 21.78572,0 0,21.78571 0,21.78572 -21.78572,0 -21.78571,0 0,-21.78572 z"
       id="path3778"
       inkscape:connector-curvature="0" />
    <path
       style="color:#000000;fill:#ffffff;fill-opacity:1;fill-rule:nonzero;stroke:none;stroke-width:2.69000006;marker:none;visibility:visible;display:inline;overflow:visible;enable-background:accumulate"
       d="m 109.13889,445.91542 0,-21.78571 21.78571,0 21.78572,0 0,21.78571 0,21.78572 -21.78572,0 -21.78571,0 0,-21.78572 z"
       id="path3780"
       inkscape:connector-curvature="0" />
    <path
       style="color:#000000;fill:#ffffff;fill-opacity:1;fill-rule:nonzero;stroke:none;stroke-width:2.69000006;marker:none;visibility:visible;display:inline;overflow:visible;enable-background:accumulate"
       d="m 109.13889,445.91542 0,-21.78571 21.78571,0 21.78572,0 0,21.78571 0,21.78572 -21.78572,0 -21.78571,0 0,-21.78572 z"
       id="path3782"
       inkscape:connector-curvature="0" />
    <path
       style="color:#000000;fill:#ffffff;fill-opacity:1;fill-rule:nonzero;stroke:none;stroke-width:2.69000006;marker:none;visibility:visible;display:inline;overflow:visible;enable-background:accumulate"
       d="m 109.13889,445.91542 0,-21.78571 21.78571,0 21.78572,0 0,21.78571 0,21.78572 -21.78572,0 -21.78571,0 0,-21.78572 z"
       id="path3784"
       inkscape:connector-curvature="0" />
    <path
       style="color:#000000;fill:none;stroke:none;stroke-width:2.69000006;marker:none;visibility:visible;display:inline;overflow:visible;enable-background:accumulate"
       d="m 109.13889,445.91542 0,-21.78571 21.78571,0 21.78572,0 0,21.78571 0,21.78572 -21.78572,0 -21.78571,0 0,-21.78572 z"
       id="path3786"
       inkscape:connector-curvature="0" />
    <path
       style="color:#000000;fill:none;stroke:none;stroke-width:2.69000006;marker:none;visibility:visible;display:inline;overflow:visible;enable-background:accumulate"
       d="m 154.13889,445.91542 0,-21.78571 21.78571,0 21.78572,0 0,21.78571 0,21.78572 -21.78572,0 -21.78571,0 0,-21.78572 z"
       id="path3788"
       inkscape:connector-curvature="0" />
    <path
       style="color:#000000;fill:#ff0000;fill-opacity:1;fill-rule:nonzero;stroke:none;stroke-width:2.69000006;marker:none;visibility:visible;display:inline;overflow:visible;enable-background:accumulate"
       d="m 243.74221,445.91542 c -3.1e-4,-12.17857 0.0971,-17.26113 0.21643,-11.29458 0.11934,5.96656 0.11958,15.93084 5.5e-4,22.14286 -0.11904,6.21202 -0.21668,1.33029 -0.21698,-10.84828 z"
       id="path3790"
       inkscape:connector-curvature="0" />
    <path
       style="color:#000000;fill:none;stroke:none;stroke-width:2.69000006;marker:none;visibility:visible;display:inline;overflow:visible;enable-background:accumulate"
       d="m 199.85317,445.91542 0,-21.78571 21.78572,0 21.78571,0 0,21.78571 0,21.78572 -21.78571,0 -21.78572,0 0,-21.78572 z"
       id="path3792"
       inkscape:connector-curvature="0" />
    <path
       style="color:#000000;fill:none;stroke:none;stroke-width:2.69000006;marker:none;visibility:visible;display:inline;overflow:visible;enable-background:accumulate"
       d="m 244.85317,445.91542 0,-21.78571 21.78572,0 21.78571,0 0,21.78571 0,21.78572 -21.78571,0 -21.78572,0 0,-21.78572 z"
       id="path3794"
       inkscape:connector-curvature="0" />
    <path
       style="color:#000000;fill:none;stroke:none;stroke-width:2.69000006;marker:none;visibility:visible;display:inline;overflow:visible;enable-background:accumulate"
       d="m 290.56746,445.91542 0,-21.78571 21.78571,0 21.78572,0 0,21.78571 0,21.78572 -21.78572,0 -21.78571,0 0,-21.78572 z"
       id="path3796"
       inkscape:connector-curvature="0" />
    <path
       style="color:#000000;fill:none;stroke:none;stroke-width:2.69000006;marker:none;visibility:visible;display:inline;overflow:visible;enable-background:accumulate"
       d="m 335.56746,445.91542 0,-21.78571 21.78571,0 21.78572,0 0,21.78571 0,21.78572 -21.78572,0 -21.78571,0 0,-21.78572 z"
       id="path3798"
       inkscape:connector-curvature="0" />
    <path
       style="color:#000000;fill:none;stroke:none;stroke-width:2.69000006;marker:none;visibility:visible;display:inline;overflow:visible;enable-background:accumulate"
       d="m 381.28175,445.91542 0,-21.78571 21.78571,0 21.78571,0 0,21.78571 0,21.78572 -21.78571,0 -21.78571,0 0,-21.78572 z"
       id="path3800"
       inkscape:connector-curvature="0" />
    <path
       style="color:#000000;fill:none;stroke:none;stroke-width:2.69000006;marker:none;visibility:visible;display:inline;overflow:visible;enable-background:accumulate"
       d="m 426.28175,445.91542 0,-21.78571 21.78571,0 21.78571,0 0,21.78571 0,21.78572 -21.78571,0 -21.78571,0 0,-21.78572 z"
       id="path3802"
       inkscape:connector-curvature="0" />
    <path
       style="color:#000000;fill:none;stroke:none;stroke-width:2.69000006;marker:none;visibility:visible;display:inline;overflow:visible;enable-background:accumulate"
       d="m 471.99603,445.91542 0,-21.78571 21.78572,0 21.78571,0 0,21.78571 0,21.78572 -21.78571,0 -21.78572,0 0,-21.78572 z"
       id="path3804"
       inkscape:connector-curvature="0" />
    <path
       style="color:#000000;fill:none;stroke:none;stroke-width:2.69000006;marker:none;visibility:visible;display:inline;overflow:visible;enable-background:accumulate"
       d="m 471.99603,400.55828 0,-22.14286 21.78572,0 21.78571,0 0,22.14286 0,22.14286 -21.78571,0 -21.78572,0 0,-22.14286 z"
       id="path3806"
       inkscape:connector-curvature="0" />
    <path
       style="color:#000000;fill:none;stroke:none;stroke-width:2.69000006;marker:none;visibility:visible;display:inline;overflow:visible;enable-background:accumulate"
       d="m 471.99603,355.20114 0,-21.78572 21.78572,0 21.78571,0 0,21.78572 0,21.78571 -21.78571,0 -21.78572,0 0,-21.78571 z"
       id="path3808"
       inkscape:connector-curvature="0" />
    <path
       style="color:#000000;fill:none;stroke:none;stroke-width:2.69000006;marker:none;visibility:visible;display:inline;overflow:visible;enable-background:accumulate"
       d="m 109.13889,491.27256 0,-22.14285 21.78571,0 21.78572,0 0,22.14285 0,22.14286 -21.78572,0 -21.78571,0 0,-22.14286 z"
       id="path3810"
       inkscape:connector-curvature="0" />
    <path
       style="color:#000000;fill:#ff0000;fill-opacity:1;stroke:none;stroke-width:2.69000006;marker:none;visibility:visible;display:inline;overflow:visible;enable-background:accumulate"
       d="m 109.13889,491.27256 0,-22.14285 21.78571,0 21.78572,0 0,22.14285 0,22.14286 -21.78572,0 -21.78571,0 0,-22.14286 z"
       id="path3812"
       inkscape:connector-curvature="0" />
    <path
       style="color:#000000;fill:#ff0000;fill-opacity:1;fill-rule:nonzero;stroke:none;stroke-width:2.69000006;marker:none;visibility:visible;display:inline;overflow:visible;enable-background:accumulate"
       d="m 154.13889,491.27256 0,-22.14285 21.78571,0 21.78572,0 0,22.14285 0,22.14286 -21.78572,0 -21.78571,0 0,-22.14286 z"
       id="path3814"
       inkscape:connector-curvature="0" />
    <path
       style="color:#000000;fill:#ff0000;fill-opacity:1;fill-rule:nonzero;stroke:none;stroke-width:2.69000006;marker:none;visibility:visible;display:inline;overflow:visible;enable-background:accumulate"
       d="m 199.85317,491.27256 0,-22.14285 21.78572,0 21.78571,0 0,22.14285 0,22.14286 -21.78571,0 -21.78572,0 0,-22.14286 z"
       id="path3816"
       inkscape:connector-curvature="0" />
    <path
       style="color:#000000;fill:#ff0000;fill-opacity:1;fill-rule:nonzero;stroke:none;stroke-width:2.69000006;marker:none;visibility:visible;display:inline;overflow:visible;enable-background:accumulate"
       d="m 244.85317,491.27256 0,-22.14285 21.78572,0 21.78571,0 0,22.14285 0,22.14286 -21.78571,0 -21.78572,0 0,-22.14286 z"
       id="path3818"
       inkscape:connector-curvature="0" />
    <path
       style="color:#000000;fill:#ff0000;fill-opacity:1;fill-rule:nonzero;stroke:none;stroke-width:2.69000006;marker:none;visibility:visible;display:inline;overflow:visible;enable-background:accumulate"
       d="m 290.56746,491.27256 0,-22.14285 21.78571,0 21.78572,0 0,22.14285 0,22.14286 -21.78572,0 -21.78571,0 0,-22.14286 z"
       id="path3820"
       inkscape:connector-curvature="0" />
    <path
       style="color:#000000;fill:#ff0000;fill-opacity:1;fill-rule:nonzero;stroke:none;stroke-width:2.69000006;marker:none;visibility:visible;display:inline;overflow:visible;enable-background:accumulate"
       d="m 335.56746,491.27256 0,-22.14285 21.78571,0 21.78572,0 0,22.14285 0,22.14286 -21.78572,0 -21.78571,0 0,-22.14286 z"
       id="path3822"
       inkscape:connector-curvature="0" />
    <path
       style="color:#000000;fill:#ff0000;fill-opacity:1;fill-rule:nonzero;stroke:none;stroke-width:2.69000006;marker:none;visibility:visible;display:inline;overflow:visible;enable-background:accumulate"
       d="m 426.28175,491.27256 0,-22.14285 21.78571,0 21.78571,0 0,22.14285 0,22.14286 -21.78571,0 -21.78571,0 0,-22.14286 z"
       id="path3824"
       inkscape:connector-curvature="0" />
    <path
       style="color:#000000;fill:#ff0000;fill-opacity:1;fill-rule:nonzero;stroke:none;stroke-width:2.69000006;marker:none;visibility:visible;display:inline;overflow:visible;enable-background:accumulate"
       d="m 381.28175,491.27256 0,-22.14285 21.78571,0 21.78571,0 0,22.14285 0,22.14286 -21.78571,0 -21.78571,0 0,-22.14286 z"
       id="path3826"
       inkscape:connector-curvature="0" />
    <path
       style="color:#000000;fill:#ff0000;fill-opacity:1;fill-rule:nonzero;stroke:none;stroke-width:2.69000006;marker:none;visibility:visible;display:inline;overflow:visible;enable-background:accumulate"
       d="m 471.99603,491.27256 0,-22.14285 21.78572,0 21.78571,0 0,22.14285 0,22.14286 -21.78571,0 -21.78572,0 0,-22.14286 z"
       id="path3828"
       inkscape:connector-curvature="0" />
    <path
       style="color:#000000;fill:#ff0000;fill-opacity:1;fill-rule:nonzero;stroke:none;stroke-width:2.69000006;marker:none;visibility:visible;display:inline;overflow:visible;enable-background:accumulate"
       d="m 471.99603,445.91542 0,-21.78571 21.78572,0 21.78571,0 0,21.78571 0,21.78572 -21.78571,0 -21.78572,0 0,-21.78572 z"
       id="path3830"
       inkscape:connector-curvature="0" />
    <path
       style="color:#000000;fill:#ff0000;fill-opacity:1;fill-rule:nonzero;stroke:none;stroke-width:2.69000006;marker:none;visibility:visible;display:inline;overflow:visible;enable-background:accumulate"
       d="m 471.99603,400.55828 0,-22.14286 21.78572,0 21.78571,0 0,22.14286 0,22.14286 -21.78571,0 -21.78572,0 0,-22.14286 z"
       id="path3832"
       inkscape:connector-curvature="0" />
    <path
       style="color:#000000;fill:#ff0000;fill-opacity:1;fill-rule:nonzero;stroke:none;stroke-width:2.69000006;marker:none;visibility:visible;display:inline;overflow:visible;enable-background:accumulate"
       d="m 471.99603,355.20114 0,-21.78572 21.78572,0 21.78571,0 0,21.78572 0,21.78571 -21.78571,0 -21.78572,0 0,-21.78571 z"
       id="path3834"
       inkscape:connector-curvature="0" />
  </g>
</svg>
